<svg width="15" height="14" viewBox="0 0 15 14" fill="none" xmlns="http://www.w3.org/2000/svg">
<path d="M14 5V11C14 11.0052 14.0234 11.0781 14.0703 11.2188C14.1172 11.3542 14.1745 11.5286 14.2422 11.7422C14.3151 11.9505 14.3932 12.1797 14.4766 12.4297C14.5599 12.6797 14.638 12.9167 14.7109 13.1406C14.7839 13.3594 14.8464 13.5495 14.8984 13.7109C14.9557 13.8672 14.9896 13.9635 15 14H0C0.0104167 13.9635 0.0416667 13.8672 0.09375 13.7109C0.151042 13.5495 0.216146 13.3594 0.289062 13.1406C0.361979 12.9167 0.440104 12.6797 0.523438 12.4297C0.606771 12.1797 0.682292 11.9505 0.75 11.7422C0.822917 11.5286 0.882812 11.3542 0.929688 11.2188C0.976562 11.0781 1 11.0052 1 11V5H0V4L7.5 0.25L15 4V5H14ZM2.23438 4H12.7656L7.5 1.36719L2.23438 4ZM12 5V11H13V5H12ZM10 5V11H11V5H10ZM8 5V11H9V5H8ZM6 5V11H7V5H6ZM4 5V11H5V5H4ZM2 11H3V5H2V11ZM13.6094 13L13.2812 12H1.71875L1.39062 13H13.6094Z" fill="black"/>
</svg>
