<svg width="25" height="25" viewBox="0 0 25 25" fill="none" xmlns="http://www.w3.org/2000/svg">
<path d="M22.8429 21.0865L21.0533 18.1053C20.2283 16.7292 19.7918 15.1542 19.7918 13.549V10.9375C19.7918 6.91775 16.5199 3.64587 12.5001 3.64587C8.48035 3.64587 5.20848 6.91775 5.20848 10.9375V13.549C5.20848 15.1542 4.772 16.7292 3.947 18.1053L2.1574 21.0865C2.06053 21.2469 2.05843 21.448 2.15013 21.6105C2.24285 21.774 2.41678 21.8751 2.60428 21.8751H22.3959C22.5834 21.8751 22.7574 21.774 22.8501 21.6105C22.9418 21.4479 22.9397 21.2469 22.8429 21.0865ZM3.5241 20.8334L4.83973 18.6406C5.76263 17.1032 6.25013 15.3427 6.25013 13.549V10.9375C6.25013 7.49065 9.05325 4.68752 12.5001 4.68752C15.947 4.68752 18.7501 7.49065 18.7501 10.9375V13.549C18.7501 15.3427 19.2376 17.1032 20.1595 18.6406L21.4762 20.8334H3.5241Z" fill="#494E65"/>
<path d="M14.7541 21.0906C14.6072 20.8427 14.2895 20.7615 14.0406 20.9042C13.7916 21.05 13.7083 21.3698 13.8541 21.6177C13.9895 21.8479 14.0635 22.1239 14.0635 22.3958C14.0635 23.2573 13.3624 23.9583 12.501 23.9583C11.6395 23.9583 10.9385 23.2573 10.9385 22.3958C10.9385 22.1239 11.0124 21.8479 11.1478 21.6177C11.2926 21.3687 11.2093 21.05 10.9614 20.9042C10.7103 20.7614 10.3937 20.8427 10.2479 21.0906C10.0176 21.4844 9.89575 21.9354 9.89575 22.3959C9.8958 23.8323 11.0635 25 12.4999 25C13.9364 25 15.1041 23.8323 15.1062 22.3959C15.1062 21.9354 14.9843 21.4844 14.7541 21.0906Z" fill="#494E65"/>
</svg>
