<svg width="13" height="13" viewBox="0 0 13 13" fill="none" xmlns="http://www.w3.org/2000/svg">
<path d="M10.5625 0.8125H13V12.1875H0V0.8125H2.4375V0H3.25V0.8125H9.75V0H10.5625V0.8125ZM2.4375 1.625H0.8125V3.25H12.1875V1.625H10.5625V2.4375H9.75V1.625H3.25V2.4375H2.4375V1.625ZM0.8125 11.375H12.1875V4.0625H0.8125V11.375ZM2.4375 10.5625V4.875H5.6875V10.5625H2.4375ZM3.25 5.6875V9.75H4.875V5.6875H3.25ZM7.3125 10.5625V4.875H10.5625V10.5625H7.3125ZM8.125 5.6875V9.75H9.75V5.6875H8.125Z" fill="#717999"/>
</svg>
