<svg width="16" height="16" viewBox="0 0 16 16" fill="none" xmlns="http://www.w3.org/2000/svg">
<path d="M8 4V8.28906L10.8516 11.1484L10.1484 11.8516L7 8.71094V4H8ZM15.375 4.88281C15.7917 5.88281 16 6.92188 16 8C16 9.07812 15.7917 10.1172 15.375 11.1172C14.9688 12.0703 14.3958 12.9167 13.6562 13.6562C12.9167 14.3958 12.0703 14.9688 11.1172 15.375C10.1172 15.7917 9.07812 16 8 16C7.09375 16 6.21875 15.8516 5.375 15.5547C4.55208 15.2682 3.79948 14.862 3.11719 14.3359C2.4401 13.8099 1.85938 13.1901 1.375 12.4766C1.13021 12.1172 0.916667 11.7422 0.734375 11.3516C0.557292 10.9609 0.411458 10.5547 0.296875 10.1328L1.25781 9.86719C1.46615 10.6224 1.78646 11.3151 2.21875 11.9453C2.65625 12.5755 3.17188 13.1172 3.76562 13.5703C4.35938 14.0234 5.01823 14.375 5.74219 14.625C6.46615 14.875 7.21875 15 8 15C8.64062 15 9.25781 14.9167 9.85156 14.75C10.4505 14.5833 11.0078 14.349 11.5234 14.0469C12.0443 13.7396 12.5182 13.3724 12.9453 12.9453C13.3724 12.5182 13.737 12.0469 14.0391 11.5312C14.3464 11.0104 14.5833 10.4531 14.75 9.85938C14.9167 9.26562 15 8.64583 15 8C15 7.35938 14.9167 6.74219 14.75 6.14844C14.5833 5.54948 14.3464 4.99219 14.0391 4.47656C13.737 3.95573 13.3724 3.48177 12.9453 3.05469C12.5182 2.6276 12.0443 2.26302 11.5234 1.96094C11.0078 1.65365 10.4505 1.41667 9.85156 1.25C9.25781 1.08333 8.64062 1 8 1C7.32292 1 6.66667 1.09635 6.03125 1.28906C5.39583 1.47656 4.80208 1.74479 4.25 2.09375C3.70312 2.44271 3.20833 2.86458 2.76562 3.35938C2.32812 3.84896 1.96615 4.39583 1.67969 5H4V6H0V2H1V4.14062C1.08854 3.97396 1.1849 3.8125 1.28906 3.65625C1.39323 3.49479 1.5026 3.33854 1.61719 3.1875C2.10677 2.53646 2.67969 1.97396 3.33594 1.5C4.02344 1.01042 4.76042 0.638021 5.54688 0.382812C6.33333 0.127604 7.15104 0 8 0C9.07812 0 10.1172 0.208333 11.1172 0.625C12.0703 1.03125 12.9167 1.60417 13.6562 2.34375C14.3958 3.08333 14.9688 3.92969 15.375 4.88281Z" fill="black"/>
</svg>
