<svg width="16" height="14" viewBox="0 0 16 14" fill="none" xmlns="http://www.w3.org/2000/svg">
<path d="M12.3594 6.32031C12.5729 6.69531 12.7318 7.08854 12.8359 7.5C12.9453 7.90625 13 8.32292 13 8.75V9.55469L8 12.0625L3 9.55469C3 9.24219 3.0026 8.95052 3.00781 8.67969C3.01823 8.40885 3.04167 8.14583 3.07812 7.89062C3.11979 7.63021 3.18229 7.375 3.26562 7.125C3.35417 6.86979 3.47917 6.60156 3.64062 6.32031L2 5.5V10.0859C2.15104 10.138 2.28646 10.2109 2.40625 10.3047C2.53125 10.3984 2.63802 10.5078 2.72656 10.6328C2.8151 10.7578 2.88281 10.8958 2.92969 11.0469C2.97656 11.1927 3 11.3438 3 11.5V14H0V11.5C0 11.3438 0.0234375 11.1927 0.0703125 11.0469C0.117188 10.8958 0.184896 10.7578 0.273438 10.6328C0.361979 10.5078 0.466146 10.3984 0.585938 10.3047C0.710938 10.2109 0.848958 10.138 1 10.0859V5L0 4.5L8 0.5L16 4.5L12.3594 6.32031ZM2 11.5C2 11.3646 1.95052 11.2474 1.85156 11.1484C1.7526 11.0495 1.63542 11 1.5 11C1.36458 11 1.2474 11.0495 1.14844 11.1484C1.04948 11.2474 1 11.3646 1 11.5V13H2V11.5ZM2.23438 4.5L8 7.38281L13.7656 4.5L8 1.61719L2.23438 4.5ZM12 8.9375C12 8.53646 11.9609 8.16406 11.8828 7.82031C11.8047 7.47135 11.6667 7.11979 11.4688 6.76562L8 8.5L4.53125 6.76562C4.35938 7.06771 4.22656 7.38802 4.13281 7.72656C4.04427 8.0599 4 8.40104 4 8.75V8.9375L8 10.9375L12 8.9375Z" fill="black"/>
</svg>
