<svg width="16" height="13" viewBox="0 0 16 13" fill="none" xmlns="http://www.w3.org/2000/svg">
<path d="M0 5V4H11V5H0ZM0 2V1H11V2H0ZM0 8V7H11V8H0ZM0 11V10H11V11H0ZM15.8516 0.726562L13.5 3.07812L12.1484 1.72656L12.8516 1.02344L13.5 1.66406L15.1484 0.0234375L15.8516 0.726562ZM13.5 4.66406L15.1484 3.02344L15.8516 3.72656L13.5 6.07812L12.1484 4.72656L12.8516 4.02344L13.5 4.66406ZM13.5 7.66406L15.1484 6.02344L15.8516 6.72656L13.5 9.07812L12.1484 7.72656L12.8516 7.02344L13.5 7.66406ZM13.5 10.6641L15.1484 9.02344L15.8516 9.72656L13.5 12.0781L12.1484 10.7266L12.8516 10.0234L13.5 10.6641Z" fill="black"/>
</svg>
