<svg width="10" height="10" viewBox="0 0 10 10" fill="none" xmlns="http://www.w3.org/2000/svg">
<g clip-path="url(#clip0)">
<path d="M5.00191 2.75366C3.58227 2.75366 2.43718 3.75562 2.43718 4.9978C2.43718 6.23999 3.58227 7.24194 5.00191 7.24194C6.42155 7.24194 7.56664 6.23999 7.56664 4.9978C7.56664 3.75562 6.42155 2.75366 5.00191 2.75366ZM5.00191 6.45679C4.0845 6.45679 3.3345 5.80249 3.3345 4.9978C3.3345 4.19312 4.08227 3.53882 5.00191 3.53882C5.92155 3.53882 6.66932 4.19312 6.66932 4.9978C6.66932 5.80249 5.91932 6.45679 5.00191 6.45679ZM8.26976 2.66187C8.26976 2.95288 8.0019 3.1853 7.67155 3.1853C7.33896 3.1853 7.07333 2.95093 7.07333 2.66187C7.07333 2.3728 7.34119 2.13843 7.67155 2.13843C8.0019 2.13843 8.26976 2.3728 8.26976 2.66187ZM9.96842 3.19312C9.93047 2.49194 9.74743 1.87085 9.16038 1.35913C8.57556 0.847412 7.86574 0.687256 7.06441 0.6521C6.23851 0.611084 3.76307 0.611084 2.93718 0.6521C2.13808 0.685303 1.42826 0.845459 0.841206 1.35718C0.254154 1.8689 0.073351 2.48999 0.0331725 3.19116C-0.0137024 3.91382 -0.0137024 6.07983 0.0331725 6.80249C0.0711189 7.50366 0.254154 8.12476 0.841206 8.63647C1.42826 9.14819 2.13585 9.30835 2.93718 9.34351C3.76307 9.38452 6.23851 9.38452 7.06441 9.34351C7.86574 9.3103 8.57556 9.15015 9.16038 8.63647C9.7452 8.12476 9.92824 7.50366 9.96842 6.80249C10.0153 6.07983 10.0153 3.91577 9.96842 3.19312ZM8.90145 7.57788C8.72735 7.96069 8.3903 8.25562 7.95056 8.40991C7.29208 8.63843 5.72959 8.58569 5.00191 8.58569C4.27423 8.58569 2.70951 8.63647 2.05326 8.40991C1.61576 8.25757 1.27871 7.96265 1.10237 7.57788C0.841206 7.00171 0.901474 5.63452 0.901474 4.9978C0.901474 4.36108 0.843438 2.99194 1.10237 2.41772C1.27647 2.03491 1.61353 1.73999 2.05326 1.58569C2.71174 1.35718 4.27423 1.40991 5.00191 1.40991C5.72959 1.40991 7.29432 1.35913 7.95056 1.58569C8.38806 1.73804 8.72511 2.03296 8.90145 2.41772C9.16261 2.9939 9.10235 4.36108 9.10235 4.9978C9.10235 5.63452 9.16261 7.00366 8.90145 7.57788Z" fill="#DCDEE6"/>
</g>
<defs>
<clipPath id="clip0">
<rect width="10" height="10" fill="white"/>
</clipPath>
</defs>
</svg>
