<svg width="289" height="225" viewBox="0 0 289 225" fill="none" xmlns="http://www.w3.org/2000/svg">
<g clip-path="url(#clip0)">
<path opacity="0.1" d="M83.0215 38.5884H61.3428C60.0923 38.5884 59.0786 39.5758 59.0786 40.7939V44.1006C59.0786 45.3187 60.0923 46.3061 61.3428 46.3061H83.0215C84.272 46.3061 85.2857 45.3187 85.2857 44.1006V40.7939C85.2857 39.5758 84.272 38.5884 83.0215 38.5884Z" fill="#717999"/>
<path opacity="0.1" d="M110.448 46.306H88.7688C87.5183 46.306 86.5046 47.2935 86.5046 48.5115V51.8182C86.5046 53.0363 87.5183 54.0237 88.7688 54.0237H110.448C111.698 54.0237 112.712 53.0363 112.712 51.8182V48.5115C112.712 47.2935 111.698 46.306 110.448 46.306Z" fill="#717999"/>
<path opacity="0.1" d="M137.874 54.0238H116.195C114.944 54.0238 113.931 55.0112 113.931 56.2293V59.536C113.931 60.754 114.944 61.7414 116.195 61.7414H137.874C139.124 61.7414 140.138 60.754 140.138 59.536V56.2293C140.138 55.0112 139.124 54.0238 137.874 54.0238Z" fill="#717999"/>
<path opacity="0.1" d="M83.0215 27.0118H61.3428C60.0923 27.0118 59.0786 27.9993 59.0786 29.2173V32.524C59.0786 33.7421 60.0923 34.7295 61.3428 34.7295H83.0215C84.272 34.7295 85.2857 33.7421 85.2857 32.524V29.2173C85.2857 27.9993 84.272 27.0118 83.0215 27.0118Z" fill="#717999"/>
<path opacity="0.1" d="M110.448 34.7295H88.7688C87.5183 34.7295 86.5046 35.7169 86.5046 36.935V40.2417C86.5046 41.4597 87.5183 42.4472 88.7688 42.4472H110.448C111.698 42.4472 112.712 41.4597 112.712 40.2417V36.935C112.712 35.7169 111.698 34.7295 110.448 34.7295Z" fill="#717999"/>
<path opacity="0.1" d="M137.874 42.4473H116.195C114.944 42.4473 113.931 43.4347 113.931 44.6527V47.9595C113.931 49.1775 114.944 50.1649 116.195 50.1649H137.874C139.124 50.1649 140.138 49.1775 140.138 47.9595V44.6527C140.138 43.4347 139.124 42.4473 137.874 42.4473Z" fill="#717999"/>
<path opacity="0.1" d="M168.347 38.5884H146.668C145.418 38.5884 144.404 39.5758 144.404 40.7939V44.1006C144.404 45.3187 145.418 46.3061 146.668 46.3061H168.347C169.597 46.3061 170.611 45.3187 170.611 44.1006V40.7939C170.611 39.5758 169.597 38.5884 168.347 38.5884Z" fill="#717999"/>
<path opacity="0.1" d="M195.773 46.306H174.094C172.844 46.306 171.83 47.2935 171.83 48.5115V51.8182C171.83 53.0363 172.844 54.0237 174.094 54.0237H195.773C197.023 54.0237 198.037 53.0363 198.037 51.8182V48.5115C198.037 47.2935 197.023 46.306 195.773 46.306Z" fill="#717999"/>
<path opacity="0.1" d="M223.199 54.0238H201.52C200.27 54.0238 199.256 55.0112 199.256 56.2293V59.536C199.256 60.754 200.27 61.7414 201.52 61.7414H223.199C224.449 61.7414 225.463 60.754 225.463 59.536V56.2293C225.463 55.0112 224.449 54.0238 223.199 54.0238Z" fill="#717999"/>
<path opacity="0.1" d="M168.347 27.0118H146.668C145.418 27.0118 144.404 27.9993 144.404 29.2173V32.524C144.404 33.7421 145.418 34.7295 146.668 34.7295H168.347C169.597 34.7295 170.611 33.7421 170.611 32.524V29.2173C170.611 27.9993 169.597 27.0118 168.347 27.0118Z" fill="#717999"/>
<path opacity="0.1" d="M195.773 34.7295H174.094C172.844 34.7295 171.83 35.7169 171.83 36.935V40.2417C171.83 41.4597 172.844 42.4472 174.094 42.4472H195.773C197.023 42.4472 198.037 41.4597 198.037 40.2417V36.935C198.037 35.7169 197.023 34.7295 195.773 34.7295Z" fill="#717999"/>
<path opacity="0.1" d="M223.199 42.4473H201.52C200.27 42.4473 199.256 43.4347 199.256 44.6527V47.9595C199.256 49.1775 200.27 50.1649 201.52 50.1649H223.199C224.449 50.1649 225.463 49.1775 225.463 47.9595V44.6527C225.463 43.4347 224.449 42.4473 223.199 42.4473Z" fill="#717999"/>
<path opacity="0.1" d="M83.0215 11.5765H61.3428C60.0923 11.5765 59.0786 12.564 59.0786 13.782V17.0887C59.0786 18.3068 60.0923 19.2942 61.3428 19.2942H83.0215C84.272 19.2942 85.2857 18.3068 85.2857 17.0887V13.782C85.2857 12.564 84.272 11.5765 83.0215 11.5765Z" fill="#717999"/>
<path opacity="0.1" d="M110.448 19.2942H88.7688C87.5183 19.2942 86.5046 20.2816 86.5046 21.4997V24.8064C86.5046 26.0244 87.5183 27.0119 88.7688 27.0119H110.448C111.698 27.0119 112.712 26.0244 112.712 24.8064V21.4997C112.712 20.2816 111.698 19.2942 110.448 19.2942Z" fill="#717999"/>
<path opacity="0.1" d="M137.874 27.0118H116.195C114.944 27.0118 113.931 27.9993 113.931 29.2173V32.524C113.931 33.7421 114.944 34.7295 116.195 34.7295H137.874C139.124 34.7295 140.138 33.7421 140.138 32.524V29.2173C140.138 27.9993 139.124 27.0118 137.874 27.0118Z" fill="#717999"/>
<path opacity="0.1" d="M83.0215 0H61.3428C60.0923 0 59.0786 0.987424 59.0786 2.20547V5.5122C59.0786 6.73025 60.0923 7.71768 61.3428 7.71768H83.0215C84.272 7.71768 85.2857 6.73025 85.2857 5.5122V2.20547C85.2857 0.987424 84.272 0 83.0215 0Z" fill="#717999"/>
<path opacity="0.1" d="M110.448 7.71765H88.7688C87.5183 7.71765 86.5046 8.70508 86.5046 9.92313V13.2299C86.5046 14.4479 87.5183 15.4353 88.7688 15.4353H110.448C111.698 15.4353 112.712 14.4479 112.712 13.2299V9.92313C112.712 8.70508 111.698 7.71765 110.448 7.71765Z" fill="#717999"/>
<path opacity="0.1" d="M137.874 15.4353H116.195C114.944 15.4353 113.931 16.4227 113.931 17.6408V20.9475C113.931 22.1656 114.944 23.153 116.195 23.153H137.874C139.124 23.153 140.138 22.1656 140.138 20.9475V17.6408C140.138 16.4227 139.124 15.4353 137.874 15.4353Z" fill="#717999"/>
<path opacity="0.1" d="M168.347 11.5765H146.668C145.418 11.5765 144.404 12.564 144.404 13.782V17.0887C144.404 18.3068 145.418 19.2942 146.668 19.2942H168.347C169.597 19.2942 170.611 18.3068 170.611 17.0887V13.782C170.611 12.564 169.597 11.5765 168.347 11.5765Z" fill="#717999"/>
<path opacity="0.1" d="M195.773 19.2942H174.094C172.844 19.2942 171.83 20.2816 171.83 21.4997V24.8064C171.83 26.0244 172.844 27.0119 174.094 27.0119H195.773C197.023 27.0119 198.037 26.0244 198.037 24.8064V21.4997C198.037 20.2816 197.023 19.2942 195.773 19.2942Z" fill="#717999"/>
<path opacity="0.1" d="M223.199 27.0118H201.52C200.27 27.0118 199.256 27.9993 199.256 29.2173V32.524C199.256 33.7421 200.27 34.7295 201.52 34.7295H223.199C224.449 34.7295 225.463 33.7421 225.463 32.524V29.2173C225.463 27.9993 224.449 27.0118 223.199 27.0118Z" fill="#717999"/>
<path opacity="0.1" d="M168.347 0H146.668C145.418 0 144.404 0.987424 144.404 2.20547V5.5122C144.404 6.73025 145.418 7.71768 146.668 7.71768H168.347C169.597 7.71768 170.611 6.73025 170.611 5.5122V2.20547C170.611 0.987424 169.597 0 168.347 0Z" fill="#717999"/>
<path opacity="0.1" d="M195.773 7.71765H174.094C172.844 7.71765 171.83 8.70508 171.83 9.92313V13.2299C171.83 14.4479 172.844 15.4353 174.094 15.4353H195.773C197.023 15.4353 198.037 14.4479 198.037 13.2299V9.92313C198.037 8.70508 197.023 7.71765 195.773 7.71765Z" fill="#717999"/>
<path opacity="0.1" d="M223.199 15.4353H201.52C200.27 15.4353 199.256 16.4227 199.256 17.6408V20.9475C199.256 22.1656 200.27 23.153 201.52 23.153H223.199C224.449 23.153 225.463 22.1656 225.463 20.9475V17.6408C225.463 16.4227 224.449 15.4353 223.199 15.4353Z" fill="#717999"/>
<path opacity="0.1" d="M83.0215 176.022H61.3428C60.0923 176.022 59.0786 177.01 59.0786 178.228V181.535C59.0786 182.753 60.0923 183.74 61.3428 183.74H83.0215C84.272 183.74 85.2857 182.753 85.2857 181.535V178.228C85.2857 177.01 84.272 176.022 83.0215 176.022Z" fill="#717999"/>
<path opacity="0.1" d="M110.448 183.74H88.7688C87.5183 183.74 86.5046 184.728 86.5046 185.946V189.252C86.5046 190.47 87.5183 191.458 88.7688 191.458H110.448C111.698 191.458 112.712 190.47 112.712 189.252V185.946C112.712 184.728 111.698 183.74 110.448 183.74Z" fill="#717999"/>
<path opacity="0.1" d="M137.874 191.458H116.195C114.944 191.458 113.931 192.445 113.931 193.663V196.97C113.931 198.188 114.944 199.176 116.195 199.176H137.874C139.124 199.176 140.138 198.188 140.138 196.97V193.663C140.138 192.445 139.124 191.458 137.874 191.458Z" fill="#717999"/>
<path opacity="0.1" d="M83.0215 164.446H61.3428C60.0923 164.446 59.0786 165.433 59.0786 166.651V169.958C59.0786 171.176 60.0923 172.164 61.3428 172.164H83.0215C84.272 172.164 85.2857 171.176 85.2857 169.958V166.651C85.2857 165.433 84.272 164.446 83.0215 164.446Z" fill="#717999"/>
<path opacity="0.1" d="M110.448 172.164H88.7688C87.5183 172.164 86.5046 173.151 86.5046 174.369V177.676C86.5046 178.894 87.5183 179.881 88.7688 179.881H110.448C111.698 179.881 112.712 178.894 112.712 177.676V174.369C112.712 173.151 111.698 172.164 110.448 172.164Z" fill="#717999"/>
<path opacity="0.1" d="M137.874 179.881H116.195C114.944 179.881 113.931 180.869 113.931 182.087V185.394C113.931 186.612 114.944 187.599 116.195 187.599H137.874C139.124 187.599 140.138 186.612 140.138 185.394V182.087C140.138 180.869 139.124 179.881 137.874 179.881Z" fill="#717999"/>
<path opacity="0.1" d="M168.347 176.022H146.668C145.418 176.022 144.404 177.01 144.404 178.228V181.535C144.404 182.753 145.418 183.74 146.668 183.74H168.347C169.597 183.74 170.611 182.753 170.611 181.535V178.228C170.611 177.01 169.597 176.022 168.347 176.022Z" fill="#717999"/>
<path opacity="0.1" d="M195.773 183.74H174.094C172.844 183.74 171.83 184.728 171.83 185.946V189.252C171.83 190.47 172.844 191.458 174.094 191.458H195.773C197.023 191.458 198.037 190.47 198.037 189.252V185.946C198.037 184.728 197.023 183.74 195.773 183.74Z" fill="#717999"/>
<path opacity="0.1" d="M223.199 191.458H201.52C200.27 191.458 199.256 192.445 199.256 193.663V196.97C199.256 198.188 200.27 199.176 201.52 199.176H223.199C224.449 199.176 225.463 198.188 225.463 196.97V193.663C225.463 192.445 224.449 191.458 223.199 191.458Z" fill="#717999"/>
<path opacity="0.1" d="M168.347 164.446H146.668C145.418 164.446 144.404 165.433 144.404 166.651V169.958C144.404 171.176 145.418 172.164 146.668 172.164H168.347C169.597 172.164 170.611 171.176 170.611 169.958V166.651C170.611 165.433 169.597 164.446 168.347 164.446Z" fill="#717999"/>
<path opacity="0.1" d="M195.773 172.164H174.094C172.844 172.164 171.83 173.151 171.83 174.369V177.676C171.83 178.894 172.844 179.881 174.094 179.881H195.773C197.023 179.881 198.037 178.894 198.037 177.676V174.369C198.037 173.151 197.023 172.164 195.773 172.164Z" fill="#717999"/>
<path opacity="0.1" d="M223.199 179.881H201.52C200.27 179.881 199.256 180.869 199.256 182.087V185.394C199.256 186.612 200.27 187.599 201.52 187.599H223.199C224.449 187.599 225.463 186.612 225.463 185.394V182.087C225.463 180.869 224.449 179.881 223.199 179.881Z" fill="#717999"/>
<path opacity="0.1" d="M83.0215 149.01H61.3428C60.0923 149.01 59.0786 149.998 59.0786 151.216V154.523C59.0786 155.741 60.0923 156.728 61.3428 156.728H83.0215C84.272 156.728 85.2857 155.741 85.2857 154.523V151.216C85.2857 149.998 84.272 149.01 83.0215 149.01Z" fill="#717999"/>
<path opacity="0.1" d="M110.448 156.728H88.7688C87.5183 156.728 86.5046 157.716 86.5046 158.934V162.241C86.5046 163.459 87.5183 164.446 88.7688 164.446H110.448C111.698 164.446 112.712 163.459 112.712 162.241V158.934C112.712 157.716 111.698 156.728 110.448 156.728Z" fill="#717999"/>
<path opacity="0.1" d="M137.874 164.446H116.195C114.944 164.446 113.931 165.433 113.931 166.651V169.958C113.931 171.176 114.944 172.164 116.195 172.164H137.874C139.124 172.164 140.138 171.176 140.138 169.958V166.651C140.138 165.433 139.124 164.446 137.874 164.446Z" fill="#717999"/>
<path opacity="0.1" d="M83.0215 137.434H61.3428C60.0923 137.434 59.0786 138.421 59.0786 139.639V142.946C59.0786 144.164 60.0923 145.152 61.3428 145.152H83.0215C84.272 145.152 85.2857 144.164 85.2857 142.946V139.639C85.2857 138.421 84.272 137.434 83.0215 137.434Z" fill="#717999"/>
<path opacity="0.1" d="M110.448 145.152H88.7688C87.5183 145.152 86.5046 146.139 86.5046 147.357V150.664C86.5046 151.882 87.5183 152.87 88.7688 152.87H110.448C111.698 152.87 112.712 151.882 112.712 150.664V147.357C112.712 146.139 111.698 145.152 110.448 145.152Z" fill="#717999"/>
<path opacity="0.1" d="M137.874 152.869H116.195C114.944 152.869 113.931 153.857 113.931 155.075V158.382C113.931 159.6 114.944 160.587 116.195 160.587H137.874C139.124 160.587 140.138 159.6 140.138 158.382V155.075C140.138 153.857 139.124 152.869 137.874 152.869Z" fill="#717999"/>
<path opacity="0.1" d="M168.347 149.01H146.668C145.418 149.01 144.404 149.998 144.404 151.216V154.523C144.404 155.741 145.418 156.728 146.668 156.728H168.347C169.597 156.728 170.611 155.741 170.611 154.523V151.216C170.611 149.998 169.597 149.01 168.347 149.01Z" fill="#717999"/>
<path opacity="0.1" d="M195.773 156.728H174.094C172.844 156.728 171.83 157.716 171.83 158.934V162.241C171.83 163.459 172.844 164.446 174.094 164.446H195.773C197.023 164.446 198.037 163.459 198.037 162.241V158.934C198.037 157.716 197.023 156.728 195.773 156.728Z" fill="#717999"/>
<path opacity="0.1" d="M223.199 164.446H201.52C200.27 164.446 199.256 165.433 199.256 166.651V169.958C199.256 171.176 200.27 172.164 201.52 172.164H223.199C224.449 172.164 225.463 171.176 225.463 169.958V166.651C225.463 165.433 224.449 164.446 223.199 164.446Z" fill="#717999"/>
<path opacity="0.1" d="M168.347 137.434H146.668C145.418 137.434 144.404 138.421 144.404 139.639V142.946C144.404 144.164 145.418 145.152 146.668 145.152H168.347C169.597 145.152 170.611 144.164 170.611 142.946V139.639C170.611 138.421 169.597 137.434 168.347 137.434Z" fill="#717999"/>
<path opacity="0.1" d="M195.773 145.152H174.094C172.844 145.152 171.83 146.139 171.83 147.357V150.664C171.83 151.882 172.844 152.87 174.094 152.87H195.773C197.023 152.87 198.037 151.882 198.037 150.664V147.357C198.037 146.139 197.023 145.152 195.773 145.152Z" fill="#717999"/>
<path opacity="0.1" d="M223.199 152.869H201.52C200.27 152.869 199.256 153.857 199.256 155.075V158.382C199.256 159.6 200.27 160.587 201.52 160.587H223.199C224.449 160.587 225.463 159.6 225.463 158.382V155.075C225.463 153.857 224.449 152.869 223.199 152.869Z" fill="#717999"/>
<path opacity="0.1" d="M146.994 225C220.794 225 280.62 220.216 280.62 214.314C280.62 208.412 220.794 203.628 146.994 203.628C73.1949 203.628 13.3687 208.412 13.3687 214.314C13.3687 220.216 73.1949 225 146.994 225Z" fill="#717999"/>
<path d="M25.7957 55.4485C38.3964 60.7678 45.6369 71.7744 45.6369 71.7744C45.6369 71.7744 32.445 74.149 19.8412 68.8328C7.23742 63.5165 0 52.5069 0 52.5069C0 52.5069 13.1919 50.1293 25.7957 55.4485Z" fill="#717999"/>
<path d="M64.4663 35.0264C68.3639 28.7929 75.001 25.8246 75.001 25.8246C75.001 25.8246 75.3057 32.9308 71.4204 39.1465C67.535 45.3622 60.8827 48.3276 60.8827 48.3276C60.8827 48.3276 60.5657 41.2243 64.4663 35.0264Z" fill="#717999"/>
<path d="M35.8154 41.6963C38.6037 51.3908 46.2891 57.7728 46.2891 57.7728C46.2891 57.7728 49.4553 48.4314 46.667 38.7339C43.8786 29.0363 36.1902 22.6573 36.1902 22.6573C36.1902 22.6573 33.024 31.9987 35.8154 41.6963Z" fill="#46455B"/>
<path d="M256.177 41.2599H38.4208C37.2073 41.2599 36.2236 42.2181 36.2236 43.4001V147.464C36.2236 148.646 37.2073 149.604 38.4208 149.604H256.177C257.391 149.604 258.374 148.646 258.374 147.464V43.4001C258.374 42.2181 257.391 41.2599 256.177 41.2599Z" fill="#3F3D56"/>
<path opacity="0.1" d="M36.2236 143.074H258.374V147.464C258.374 148.032 258.143 148.576 257.731 148.977C257.319 149.379 256.76 149.604 256.177 149.604H38.4208C37.838 149.604 37.2792 149.379 36.8672 148.977C36.4551 148.576 36.2236 148.032 36.2236 147.464V143.074Z" fill="black"/>
<path d="M73.5534 135.059H58.6215C58.2007 135.059 57.8596 135.392 57.8596 135.801V142.332C57.8596 142.742 58.2007 143.074 58.6215 143.074H73.5534C73.9741 143.074 74.3152 142.742 74.3152 142.332V135.801C74.3152 135.392 73.9741 135.059 73.5534 135.059Z" fill="#717999"/>
<path d="M89.5519 141.887H79.4957C79.1591 141.887 78.8862 142.152 78.8862 142.48C78.8862 142.808 79.1591 143.074 79.4957 143.074H89.5519C89.8885 143.074 90.1614 142.808 90.1614 142.48C90.1614 142.152 89.8885 141.887 89.5519 141.887Z" fill="#717999"/>
<path d="M68.876 62.4479C76.9179 63.8935 85.1213 62.4479 93.1297 61.4683L117.469 58.5C118.453 58.3783 119.885 57.8054 120.464 58.9779C120.79 59.6339 120.571 61.0557 120.595 61.8097C120.659 63.8875 120.653 65.9654 120.595 68.0432C120.486 72.0149 120.187 75.9776 119.806 79.9314C119.066 87.6699 118.017 95.3668 117.493 103.135C117.225 107.089 117.091 111.054 117.21 115.008C117.237 115.952 117.277 116.896 117.335 117.837C117.399 118.891 117.883 120.455 116.704 121.159C116.03 121.562 114.705 121.542 113.934 121.66C112.715 121.847 111.496 121.996 110.253 122.117C102.058 122.916 93.7575 122.583 85.5327 122.536L60.697 122.411L54.6389 122.379C54.0903 122.379 52.1126 122.699 51.7744 122.064C51.6311 121.794 52.0121 120.529 52.0791 120.191C52.1725 119.633 52.2741 119.076 52.3838 118.52C53.0908 114.616 53.9258 110.737 54.7668 106.86C56.5739 98.5488 58.4236 90.1959 59.1672 81.7065C59.5359 77.4469 59.2921 73.1488 59.7431 68.8981C59.9534 66.9241 60.2033 62.5191 62.9002 62.344C65.1857 62.1956 67.5382 62.344 69.8298 62.344C69.951 62.344 70.0673 62.2971 70.153 62.2136C70.2388 62.1301 70.2869 62.0168 70.2869 61.8988C70.2869 61.7807 70.2388 61.6674 70.153 61.5839C70.0673 61.5004 69.951 61.4535 69.8298 61.4535C67.6662 61.4535 65.4996 61.3971 63.3359 61.4387C61.8976 61.4654 60.8981 61.7978 60.2124 63.0861C58.4602 66.3928 58.64 70.8038 58.5852 74.4133C58.4541 83.0541 57.092 91.5109 55.3184 99.9618C54.4255 104.215 53.4626 108.454 52.5758 112.711C52.1583 114.744 51.7591 116.783 51.3934 118.829C51.2228 119.802 50.3604 121.948 51.1192 122.842C51.878 123.735 54.2122 123.254 55.2575 123.26L62.5284 123.302L76.4608 123.379C85.4626 123.429 94.4949 123.676 103.494 123.418C107.79 123.293 112.331 123.121 116.515 122.12C117.761 121.824 118.362 121.266 118.41 119.971C118.484 117.965 118.148 115.896 118.106 113.88C117.801 96.6343 121.961 79.6286 121.534 62.3767C121.506 61.2042 121.961 58.2477 120.644 57.5383C120.053 57.2177 119.285 57.3928 118.663 57.4641C117.475 57.5976 116.289 57.7609 115.101 57.8974L99.6662 59.7734C94.7326 60.3671 89.802 61.0083 84.8593 61.5544C79.627 62.1481 74.3429 62.5013 69.1289 61.5544C68.553 61.4505 68.3061 62.3084 68.8851 62.4123L68.876 62.4479Z" fill="#717999"/>
<path d="M59.1731 72.9409L120.065 70.032C120.653 70.0023 120.656 69.1118 120.065 69.1415L59.1731 72.0504C58.588 72.0771 58.585 72.9676 59.1731 72.9409Z" fill="#717999"/>
<path d="M77.9326 65.6003C77.7623 65.7761 77.6386 65.9898 77.5724 66.2227C77.5061 66.4556 77.4993 66.7008 77.5525 66.9369C77.6056 67.173 77.7172 67.3928 77.8774 67.5774C78.0377 67.7619 78.2417 67.9055 78.4719 67.9958C79.2917 68.3609 80.2546 68.0551 81.0683 67.8563C82.2872 67.5594 83.5061 67.2953 84.7586 67.0786C87.4845 66.6085 90.2456 66.3583 93.0138 66.3305C94.2754 66.3157 95.5279 66.3721 96.7895 66.4255C97.7037 66.4612 98.688 66.5324 99.462 65.9803C100.346 65.351 100.632 64.1221 99.7667 63.3563C98.5478 62.2729 95.921 62.9021 94.5131 63.0149C89.4045 63.4283 84.3291 64.166 79.3191 65.2234C78.7462 65.3421 78.9869 66.2029 79.5629 66.0812C82.8682 65.3866 86.199 64.8286 89.5551 64.4071C91.2047 64.2092 92.8574 64.042 94.5131 63.9054C95.2932 63.8431 96.0733 63.7867 96.8535 63.7422C97.1582 63.7244 97.4812 63.6917 97.792 63.7006C98.7581 63.7214 98.8708 63.5522 98.2918 64.6891C97.7768 65.6953 97.9414 65.5796 97.0485 65.5469C96.6706 65.5469 96.2928 65.5054 95.9149 65.4875C95.1409 65.4559 94.3668 65.4391 93.5928 65.4371C91.9452 65.4371 90.3017 65.5143 88.6622 65.6686C87.2726 65.7992 85.8861 65.9833 84.5118 66.2207C83.6524 66.3691 82.7992 66.5413 81.949 66.7313C81.5741 66.8174 81.1963 66.9064 80.8214 66.9984C80.6416 67.0459 80.4588 67.0875 80.279 67.132C79.6127 67.3576 79.0448 67.0608 78.5756 66.2415C78.9839 65.8289 78.3409 65.1967 77.9295 65.6122L77.9326 65.6003Z" fill="#717999"/>
<path d="M88.97 78.2692C84.5606 78.103 79.7976 79.2636 76.8935 82.7217C74.6201 85.4258 73.325 90.0653 75.7324 93.1108C78.3196 96.376 83.9937 95.8001 87.4159 94.408C91.0361 92.9238 94.9977 89.8635 96.0856 86.0343C97.4416 81.2524 93.0382 77.6369 88.452 77.5835C87.8639 77.5835 87.8639 78.474 88.452 78.474C91.0666 78.5037 93.6325 79.596 94.8514 81.9677C96.1282 84.4671 95.0281 87.0911 93.3277 89.0917C90.6034 92.2767 86.3433 94.6781 82.0038 94.6098C79.3984 94.5713 76.5186 93.7015 75.7111 91.0241C75.0468 88.8542 75.5526 86.4826 76.7106 84.5591C79.2155 80.4034 84.3137 78.9964 88.9883 79.1745C89.5765 79.1953 89.5765 78.3048 88.9883 78.284L88.97 78.2692Z" fill="#717999"/>
<path d="M84.5909 84.8648C84.4029 84.7969 84.2003 84.7765 84.002 84.8054C83.8038 84.8343 83.6162 84.9116 83.4568 85.0301C83.2975 85.1486 83.1715 85.3044 83.0906 85.4831C83.0096 85.6618 82.9765 85.8575 82.9941 86.0521C83.0855 87.2097 84.3959 87.5362 85.3802 87.468C86.2304 87.3967 87.2238 87.091 86.9252 86.055C86.8702 85.8717 86.7754 85.702 86.6471 85.5576C86.5188 85.4131 86.36 85.2973 86.1816 85.218C85.909 85.1126 85.6131 85.0768 85.3223 85.1141C85.2095 85.1141 84.1765 85.4822 84.6153 85.0399L83.8961 84.9479C83.9759 85.0245 84.0371 85.1177 84.0751 85.2204C84.113 85.3232 84.1269 85.4329 84.1155 85.5415C84.1169 85.6191 84.1389 85.695 84.1795 85.7618C84.22 85.8286 84.2776 85.884 84.3467 85.9226C84.4159 85.9612 84.4941 85.9817 84.5737 85.982C84.6534 85.9823 84.7318 85.9625 84.8012 85.9244C84.9057 85.8818 85.0204 85.8684 85.1324 85.8858C85.2443 85.9032 85.349 85.9506 85.4348 86.0227C85.5206 86.0949 85.5841 86.1889 85.618 86.2943C85.652 86.3996 85.6551 86.5121 85.627 86.619C85.6025 86.7219 85.616 86.8298 85.6651 86.9239C85.7143 87.018 85.796 87.0921 85.8958 87.1333C85.9956 87.1745 86.1071 87.18 86.2107 87.1489C86.3143 87.1178 86.4033 87.0521 86.462 86.9634C86.7667 86.4291 87.1355 85.3664 86.6784 84.8084C86.3736 84.4314 85.7855 84.5442 85.4198 84.7638C85.1941 84.9194 84.9839 85.0953 84.792 85.2892C84.4233 85.6068 84.1826 85.7552 84.3197 85.1467C84.5483 84.0396 85.6331 83.158 86.6235 82.7157L85.9531 82.214C85.6016 83.5006 84.9731 84.6997 84.1094 85.7315L84.8896 86.0461C84.8674 85.6386 84.975 85.2343 85.1975 84.8884C85.42 84.5426 85.7467 84.2721 86.1329 84.1138H85.6849L85.9226 84.4937C85.8342 85.0547 86.7149 85.2952 86.8033 84.7282C86.9191 83.995 86.4437 83.0422 85.563 83.4014C84.5117 83.8288 83.9662 85.0013 83.9875 86.0461C83.9875 86.4023 84.5056 86.6784 84.7707 86.3638C85.7398 85.2169 86.4473 83.8823 86.846 82.4485C86.8671 82.3635 86.8625 82.2742 86.8325 82.1917C86.8025 82.1092 86.7486 82.0369 86.6772 81.9838C86.6058 81.9306 86.5201 81.8988 86.4305 81.8923C86.3409 81.8857 86.2512 81.9047 86.1725 81.9469C85.2596 82.3488 84.4882 83.0033 83.954 83.8288C83.5822 84.4225 83.116 85.3486 83.4939 86.0313C83.5558 86.1405 83.6394 86.2367 83.7397 86.3143C83.8401 86.3919 83.9552 86.4493 84.0785 86.4832C84.2017 86.5172 84.3307 86.527 84.4579 86.5121C84.5851 86.4972 84.708 86.4579 84.8195 86.3964C85.1012 86.2337 85.3586 86.0339 85.5844 85.8027C85.6971 85.7048 85.822 85.5356 85.9714 85.5059C86.1055 85.4169 86.0994 85.4673 85.95 85.6632C85.9481 85.9708 85.8561 86.2715 85.6849 86.53L86.5199 86.8713C86.5951 86.5942 86.5863 86.3017 86.4946 86.0293C86.4029 85.7569 86.2321 85.5162 86.0029 85.3364C85.7738 85.1565 85.496 85.0451 85.2033 85.0156C84.9105 84.9862 84.6153 85.04 84.3532 85.1705L85.0419 85.5564C85.0563 85.1786 84.9345 84.8079 84.6976 84.5086C84.6616 84.4508 84.6128 84.4017 84.5548 84.3648C84.4967 84.3279 84.4309 84.3041 84.3622 84.2953C84.2934 84.2865 84.2235 84.2928 84.1577 84.3138C84.0918 84.3347 84.0315 84.3699 83.9814 84.4165C83.5182 84.8885 83.4299 85.7048 84.0119 86.1411C84.4477 86.4647 84.661 86.1411 85.1394 86.0669C86.7637 85.8621 85.816 86.5745 85.243 86.5982C84.9869 86.625 84.7278 86.6069 84.4782 86.5448C83.8423 86.3351 83.8027 86.0649 84.3593 85.7345C84.9048 85.9512 85.1394 85.0903 84.6031 84.8766L84.5909 84.8648Z" fill="#717999"/>
<path d="M83.8564 86.4915C84.2312 87.6788 82.6832 88.0706 81.9488 88.4803C81.4334 88.7618 80.984 89.145 80.6293 89.6053C79.8614 90.6086 79.5749 91.885 79.322 93.0872C79.2062 93.6482 80.0869 93.8856 80.2057 93.3246C80.3451 92.4412 80.6044 91.5798 80.9767 90.7629C81.5252 89.7003 82.3114 89.3441 83.3353 88.7979C84.3592 88.2517 85.0997 87.4057 84.7371 86.254C84.5665 85.7078 83.6827 85.9423 83.8564 86.4915Z" fill="#717999"/>
<path d="M85.3804 85.8948C85.1623 85.9241 84.9634 86.0317 84.8225 86.1964C84.6816 86.3611 84.6089 86.5711 84.6185 86.7853C84.6185 87.1385 84.8593 87.3641 85.0238 87.6461C85.4144 88.2231 85.7124 88.8547 85.9076 89.5191C86.0538 90.1573 86.197 91.3001 85.8557 91.8938C85.2249 92.9951 84.0853 92.7843 83.1132 92.7843C82.199 92.7843 81.492 93.0812 81.5225 91.8404C81.5407 91.1428 82.0405 90.4364 82.4367 89.8872L81.6017 89.7804C81.7778 90.6867 81.8706 91.6066 81.879 92.5291C81.879 92.9417 82.5281 93.1702 82.7292 92.7517C83.2191 91.7478 83.6079 90.7 83.8902 89.623L82.9913 89.5043L83.1497 91.7603C83.1524 91.8565 83.1868 91.9494 83.2478 92.0252C83.3089 92.1009 83.3934 92.1555 83.4888 92.1808C83.5842 92.2061 83.6854 92.2008 83.7775 92.1657C83.8695 92.1306 83.9475 92.0675 83.9999 91.9858C84.1067 91.8711 84.1849 91.734 84.2285 91.5851C84.259 91.4456 83.9786 90.5046 83.8658 90.8401L84.7618 90.9588L84.8257 88.8156L83.9116 88.9344C84.1048 89.5387 84.163 90.1764 84.0822 90.8044C84.0243 91.3002 84.8806 91.413 84.9964 90.9232L85.5693 88.0439L84.7343 88.1478C84.9327 88.546 84.9875 88.9978 84.8897 89.4301C84.8227 90 85.7369 89.9941 85.8039 89.4301C85.8816 88.839 85.7843 88.2386 85.5236 87.6995C85.4773 87.6252 85.4097 87.5656 85.3293 87.528C85.2488 87.4904 85.1588 87.4765 85.0703 87.4878C84.9818 87.4991 84.8986 87.5353 84.8309 87.5918C84.7631 87.6484 84.7137 87.7229 84.6886 87.8064L84.1127 90.6857L85.0116 90.8044C85.1031 90.0968 85.0333 89.3783 84.8075 88.6999C84.7769 88.5977 84.7098 88.5095 84.6183 88.4513C84.5267 88.3931 84.4168 88.3689 84.3085 88.3829C84.2001 88.3969 84.1005 88.4482 84.0277 88.5276C83.9549 88.607 83.9137 88.7092 83.9116 88.8156L83.8476 90.9588C83.8476 91.4783 84.5881 91.5525 84.7465 91.0775L84.7953 90.9321C84.8164 90.8563 84.8168 90.7764 84.7965 90.7004C84.7762 90.6244 84.7358 90.5549 84.6795 90.4987C83.7318 89.4954 83.5398 91.0924 83.2107 91.5347L84.0639 91.7603L83.9055 89.5043C83.8719 89.0234 83.1406 88.875 83.0065 89.3856C82.749 90.3896 82.3917 91.3668 81.9399 92.3035L82.7932 92.5291C82.7834 91.5268 82.6814 90.5274 82.4885 89.5429C82.4092 89.1333 81.8577 89.1511 81.6535 89.436C81.044 90.2909 79.9897 92.158 80.8033 93.1821C81.5133 94.0726 83.747 93.7283 84.7008 93.6719C86.2062 93.5888 86.7517 92.6597 86.9162 91.2764C86.9946 90.614 86.9565 89.9435 86.8035 89.2935C86.7212 88.9433 85.8893 86.7229 85.6394 86.7675C86.2184 86.6636 85.9715 85.8028 85.3956 85.9067L85.3804 85.8948Z" fill="#717999"/>
<path d="M83.6095 87.8955L81.1137 91.1043L81.903 91.5525L83.7314 88.976L82.8964 88.6316L81.9852 92.0185C81.9607 92.1214 81.9742 92.2293 82.0234 92.3234C82.0725 92.4175 82.1542 92.4916 82.254 92.5328C82.3538 92.574 82.4654 92.5795 82.5689 92.5484C82.6725 92.5173 82.7615 92.4516 82.8202 92.3629C83.2348 91.6937 83.7003 91.0557 84.2128 90.4542L83.451 90.0208C83.2464 90.7877 82.8519 91.494 82.3022 92.0779L83.067 92.5113C83.1139 92.1011 83.2259 91.7005 83.3992 91.3239C83.6338 90.8104 82.8903 90.3563 82.6099 90.8728C82.3521 91.3432 82.0577 91.7937 81.7293 92.2204L82.5642 92.3272L82.7501 91.4813L81.9151 91.3744L82.0492 92.1165C82.0712 92.1911 82.1128 92.259 82.1698 92.3133C82.2268 92.3676 82.2974 92.4065 82.3745 92.4263C82.4516 92.446 82.5327 92.4459 82.6098 92.426C82.6868 92.406 82.7572 92.3669 82.8141 92.3124C83.587 91.5333 84.2067 90.6228 84.6425 89.626H83.8563C84.063 89.9972 84.208 90.398 84.286 90.8134C84.3957 91.3477 85.124 91.1488 85.1819 90.6946C85.3128 89.7003 85.38 88.6991 85.383 87.6966H84.4688V89.5637C84.4688 90.0475 85.2824 90.19 85.3678 89.6824C85.4281 89.2321 85.5804 88.7981 85.8157 88.406H85.0143C85.2074 88.7095 85.3127 89.0583 85.319 89.4153C85.319 89.5334 85.3672 89.6466 85.4529 89.7301C85.5386 89.8136 85.6549 89.8605 85.7761 89.8605C85.8973 89.8605 86.0136 89.8136 86.0993 89.7301C86.1851 89.6466 86.2332 89.5334 86.2332 89.4153L86.349 88.8216H85.4683C85.5567 89.347 85.8919 92.3065 84.7004 91.9592C84.4993 91.9117 84.4414 91.9235 84.5267 91.9918L84.7979 91.4278L85.4348 90.1128L84.5816 89.8873C84.6364 90.4987 84.6943 91.3714 84.3164 91.8939C84.0117 92.3183 83.0731 92.4875 82.5947 92.2382C82.2789 92.0189 82.0089 91.7428 81.7993 91.4249L81.1746 92.0185C81.6805 92.3777 82.5002 93.2593 83.1524 93.3098C83.6491 93.3484 84.0666 92.9476 84.3926 92.627C84.8928 92.1236 85.2827 91.5264 85.5389 90.8718C85.795 90.2171 85.912 89.5187 85.8828 88.8186C85.8828 88.7006 85.8346 88.5873 85.7489 88.5038C85.6632 88.4203 85.5469 88.3734 85.4257 88.3734C85.3044 88.3734 85.1882 88.4203 85.1024 88.5038C85.0167 88.5873 84.9686 88.7006 84.9686 88.8186V89.8338C84.9686 89.9519 85.0167 90.0652 85.1024 90.1487C85.1882 90.2322 85.3044 90.2791 85.4257 90.2791C85.5469 90.2791 85.6632 90.2322 85.7489 90.1487C85.8346 90.0652 85.8828 89.9519 85.8828 89.8338V87.3434C85.8828 87.2253 85.8346 87.112 85.7489 87.0285C85.6632 86.945 85.5469 86.8981 85.4257 86.8981C85.3044 86.8981 85.1882 86.945 85.1024 87.0285C85.0167 87.112 84.9686 87.2253 84.9686 87.3434C84.9669 87.9403 84.9139 88.5361 84.8101 89.1244L85.7091 89.2431C85.6375 88.5339 85.6039 87.8215 85.6085 87.1089C85.6071 87.0022 85.5664 86.8996 85.4938 86.8197C85.4212 86.7397 85.3216 86.6879 85.2131 86.6735C85.1045 86.6591 84.9943 86.6832 84.9025 86.7413C84.8106 86.7994 84.7432 86.8877 84.7126 86.9901C84.5755 87.5571 84.4079 88.1152 84.2464 88.6702L85.0813 88.5634L85.0173 88.3259C84.9747 87.7589 84.0605 87.756 84.1031 88.3259C84.1132 88.5662 84.1777 88.8014 84.2921 89.0146C84.4688 89.3767 85.0204 89.2491 85.127 88.9077C85.3007 88.3496 85.4561 87.7916 85.5933 87.2276L84.6943 87.1089C84.6897 87.8215 84.7233 88.5339 84.7949 89.2431C84.8406 89.7002 85.5963 89.8962 85.6908 89.3619C85.8125 88.6914 85.8767 88.0123 85.8828 87.3315H84.9686V89.822H85.8828V88.8068H84.9686C85.0223 89.9266 84.623 91.0222 83.8563 91.8582C83.7375 91.9897 83.6092 92.1128 83.4723 92.2263C83.256 92.4282 83.0579 92.3985 82.8842 92.1343C82.4515 91.9592 82.0035 91.508 81.6256 91.2438C81.2478 90.9796 80.7297 91.502 80.9979 91.8523C81.6988 92.7606 82.744 93.7728 84.0452 93.3365C85.4135 92.8645 85.5994 91.0597 85.4958 89.8724C85.4622 89.4776 84.8558 89.2105 84.6456 89.6498C84.3408 90.2761 84.0361 90.8995 83.7314 91.5288C83.6247 91.7484 83.4266 92.0512 83.4571 92.3124C83.5577 92.9803 84.3896 92.8704 84.9015 92.8319C86.8853 92.6864 86.5715 89.9466 86.3429 88.5693C86.2667 88.1122 85.5841 88.1834 85.4622 88.5693C85.3654 88.8405 85.315 89.1252 85.3129 89.4123H86.2271C86.194 88.9019 86.0474 88.4046 85.7974 87.9549C85.7566 87.8885 85.6987 87.8335 85.6296 87.7954C85.5604 87.7572 85.4823 87.7372 85.4028 87.7372C85.3233 87.7372 85.2452 87.7572 85.1761 87.7954C85.1069 87.8335 85.0491 87.8885 85.0082 87.9549C84.7357 88.4131 84.5518 88.9161 84.4658 89.439L85.38 89.5578V87.6907C85.38 87.5726 85.3318 87.4593 85.2461 87.3758C85.1604 87.2923 85.0441 87.2454 84.9229 87.2454C84.8016 87.2454 84.6854 87.2923 84.5996 87.3758C84.5139 87.4593 84.4658 87.5726 84.4658 87.6907C84.4627 88.6931 84.3955 89.6944 84.2646 90.6887L85.1636 90.57C85.0602 90.0847 84.8846 89.6167 84.6425 89.1808C84.6016 89.1144 84.5438 89.0594 84.4746 89.0213C84.4055 88.9831 84.3274 88.9631 84.2479 88.9631C84.1684 88.9631 84.0903 88.9831 84.0211 89.0213C83.952 89.0594 83.8941 89.1144 83.8532 89.1808C83.4558 90.1104 82.8844 90.96 82.1681 91.6861L82.933 91.882L82.7989 91.1399C82.7288 90.7451 82.1559 90.7332 81.9639 91.033C81.8125 91.2562 81.7097 91.5074 81.662 91.7708C81.6143 92.0343 81.6227 92.3045 81.6866 92.5647C81.7628 92.9862 82.3113 92.9417 82.5216 92.6716C82.85 92.2459 83.1444 91.7964 83.4022 91.3269L82.613 90.8757C82.4023 91.3192 82.2586 91.7902 82.1864 92.2738C82.1315 92.6656 82.6099 93.0753 82.9512 92.7072C83.6063 92.0089 84.0807 91.1683 84.3347 90.2553C84.4475 89.8516 83.8746 89.4687 83.5698 89.822C83.0092 90.4764 82.4999 91.171 82.0462 91.8998L82.8811 92.2441L83.8106 88.8691C83.8351 88.7663 83.8216 88.6583 83.7725 88.5642C83.7233 88.4702 83.6416 88.396 83.5418 88.3548C83.442 88.3137 83.3305 88.3082 83.2269 88.3392C83.1233 88.3703 83.0343 88.436 82.9756 88.5248L81.1472 91.1043C80.8059 91.5822 81.5891 91.9948 81.9365 91.5525L84.4231 88.3467C84.7766 87.8896 83.9843 87.4562 83.6338 87.8955H83.6095Z" fill="#717999"/>
<path d="M122.487 98.6082C126.144 96.4294 129.051 93.1791 132.282 90.4601C135.786 87.5125 139.464 84.7668 143.252 82.1665C150.608 77.1204 158.333 72.6055 166.052 68.1025C166.152 68.0409 166.224 67.9439 166.252 67.8319C166.28 67.7199 166.262 67.6016 166.203 67.502C166.143 67.4024 166.046 67.3292 165.932 67.2978C165.818 67.2664 165.696 67.2793 165.592 67.3337C157.873 71.8367 150.145 76.3426 142.789 81.3977C139.318 83.7724 135.929 86.2896 132.681 88.9611C129.146 91.87 125.998 95.4914 122.015 97.8394C121.512 98.1362 121.972 98.908 122.475 98.6082H122.487Z" fill="#717999"/>
<path d="M177.855 54.276C173.893 54.6678 169.627 55.6503 167.189 59.0253C165.083 61.9284 165.129 66.9923 167.107 69.9725C169.353 73.3594 173.942 73.4811 177.507 72.3858C181.073 71.2905 184.763 69.37 184.729 65.2202C184.711 62.994 183.885 60.6757 182.974 58.6573C182.188 56.9148 180.795 55.3921 178.686 55.585C178.104 55.6385 178.098 56.529 178.686 56.4755C181.511 56.2203 182.419 59.4884 183.09 61.5514C183.699 63.4778 184.263 65.7575 183.306 67.6721C182.349 69.5867 180.043 70.5632 178.071 71.2638C175.938 72.0177 173.594 72.4778 171.367 71.8574C166.954 70.6553 165.735 65.2084 167.006 61.3436C168.469 56.8911 173.649 55.5821 177.87 55.1665C178.449 55.1101 178.455 54.2196 177.87 54.276H177.855Z" fill="#717999"/>
<path d="M183.949 88.7087C179.988 89.1006 175.722 90.0831 173.284 93.4581C171.178 96.3611 171.224 101.425 173.201 104.405C175.447 107.792 180.037 107.914 183.602 106.819C187.167 105.723 190.858 103.803 190.824 99.653C190.806 97.4267 189.98 95.1085 189.069 93.09C188.283 91.3476 186.89 89.8248 184.781 90.0178C184.199 90.0712 184.193 90.9617 184.781 90.9083C187.606 90.653 188.514 93.9211 189.185 95.9841C189.794 97.9106 190.358 100.19 189.401 102.105C188.444 104.019 186.137 104.996 184.166 105.697C182.033 106.45 179.689 106.911 177.462 106.29C173.049 105.088 171.83 99.6411 173.101 95.7764C174.564 91.3238 179.744 90.0148 183.965 89.5992C184.544 89.5428 184.55 88.6523 183.965 88.7087H183.949Z" fill="#717999"/>
<path d="M171.879 62.9465L174.765 66.1523C174.822 66.2061 174.892 66.2444 174.969 66.2638C175.046 66.2831 175.127 66.2828 175.203 66.2628C175.28 66.2428 175.35 66.2037 175.407 66.1495C175.463 66.0954 175.505 66.0278 175.527 65.9535C176.136 64.3921 176.02 62.7744 176.164 61.1329C176.321 59.4363 176.759 57.7755 177.459 56.2143C178.865 53.0478 181.248 50.3866 184.279 48.6005C184.781 48.3037 184.321 47.5319 183.818 47.8317C180.831 49.5843 178.434 52.1492 176.922 55.211C176.183 56.701 175.669 58.2879 175.399 59.9218C175.094 61.8483 175.371 63.8667 174.64 65.716L175.405 65.5171L172.534 62.3173C172.144 61.8868 171.501 62.5191 171.888 62.9465H171.879Z" fill="#717999"/>
<path d="M123.96 102.078C139.678 101.611 155.4 101.512 171.126 101.781C171.714 101.781 171.714 100.891 171.126 100.891C155.404 100.618 139.682 100.717 123.96 101.188C123.371 101.205 123.368 102.096 123.96 102.078Z" fill="#717999"/>
<path d="M174.411 93.2978C179.784 95.352 184.953 97.8817 189.852 100.855C190.352 101.152 190.812 100.389 190.312 100.086C185.349 97.0762 180.112 94.5166 174.667 92.4399C174.122 92.2292 173.884 93.09 174.426 93.2978H174.411Z" fill="#717999"/>
<path d="M184.169 89.2639C178.72 95.4512 175.564 103.242 175.207 111.387C175.182 111.96 176.096 111.96 176.121 111.387C176.467 103.476 179.528 95.9077 184.815 89.8932C185.196 89.4598 184.553 88.8275 184.169 89.2639Z" fill="#717999"/>
<path d="M62.2907 98.8456L96.3507 98.4122L100.267 98.3617C100.971 98.3617 101.674 98.338 102.378 98.335C103.369 98.335 104.036 99.1365 104.018 100.116C103.972 102.194 102.631 102.12 100.876 102.194L96.6433 102.381L79.4076 103.12C76.3206 103.254 73.2306 103.417 70.1437 103.521C67.3584 103.604 62.0621 102.719 63.2994 98.7714C63.47 98.2222 62.5893 97.9877 62.4156 98.5339C61.8062 100.475 62.8849 102.446 64.6219 103.464C67.0872 104.907 70.3357 104.417 73.0569 104.298L94.2176 103.363L99.3554 103.141C100.672 103.081 102.503 103.343 103.713 102.746C105.133 102.048 105.383 99.2789 104.487 98.1124C104.027 97.5187 103.381 97.4653 102.659 97.4386C100.763 97.3674 98.8343 97.4891 96.9358 97.5128L86.386 97.6494L62.2785 97.9462C61.6904 97.9462 61.6904 98.8367 62.2785 98.8367L62.2907 98.8456Z" fill="#717999"/>
<path d="M199.902 207.932C199.134 208.401 198.256 208.665 197.464 209.078C196.672 209.491 195.901 210.111 195.675 210.966C195.591 211.231 195.605 211.517 195.715 211.773C195.912 212.083 196.214 212.316 196.568 212.432C198.178 213.128 199.916 213.498 201.677 213.517C203.438 213.536 205.185 213.206 206.81 212.545C207.382 212.277 207.973 212.049 208.578 211.862C209.323 211.714 210.081 211.639 210.842 211.637C211.641 211.591 212.437 211.492 213.222 211.34C213.617 211.297 213.991 211.146 214.301 210.903C214.583 210.586 214.753 210.188 214.785 209.77C215.146 207.457 214.602 205.097 213.262 203.156C213.093 202.884 212.866 202.65 212.597 202.471C212.269 202.305 211.909 202.211 211.54 202.194C210.016 202.013 208.419 201.681 206.88 201.645C205.777 201.622 205.223 202.132 204.443 202.871C202.831 204.441 201.889 206.724 199.902 207.932Z" fill="#323444"/>
<path d="M222.358 207.712C222.358 209.167 222.538 210.707 223.443 211.868C223.857 212.37 224.358 212.797 224.924 213.13C226.838 214.317 229.373 214.753 231.39 213.747C231.716 213.605 231.995 213.376 232.195 213.088C232.499 212.572 232.338 211.927 232.167 211.358L229.248 201.503C227.362 201.785 224.589 201.983 222.913 202.915C221.697 203.589 222.358 206.412 222.358 207.712Z" fill="#323444"/>
<path d="M198.19 147.031C198.013 147.574 197.373 147.826 197.022 148.283C196.611 148.821 196.654 149.566 196.803 150.219C196.987 151.182 197.452 152.073 198.141 152.786C198.49 153.14 198.922 153.407 199.399 153.565C199.876 153.723 200.385 153.767 200.883 153.695C201.865 153.514 202.712 152.668 202.745 151.697C202.728 151.255 202.631 150.82 202.459 150.412L200.381 144.558C200.372 144.517 200.355 144.477 200.329 144.443C200.304 144.409 200.272 144.38 200.234 144.359C200.156 144.342 200.074 144.356 200.006 144.398C199.515 144.623 198.531 144.861 198.244 145.356C197.958 145.852 198.397 146.493 198.19 147.031Z" fill="#FBB3B2"/>
<path d="M197.217 146.737C197.976 146.621 198.64 146.188 199.35 145.903C200.06 145.618 200.95 145.508 201.548 145.983C201.718 146.119 201.883 146.306 202.105 146.303C201.803 144.852 201.345 143.435 200.74 142.076C200.719 142.011 200.677 141.954 200.621 141.913C200.538 141.88 200.445 141.88 200.362 141.913L198.311 142.436C197.553 142.629 197.464 142.569 197.522 143.296C197.537 143.62 197.708 146.737 197.217 146.737Z" fill="#323444"/>
<path d="M196.992 104.468C196.687 104.925 196.687 105.495 196.687 106.032C196.687 108.659 196.715 111.301 197.114 113.901C197.208 114.524 197.327 115.148 197.388 115.777C197.457 116.653 197.471 117.532 197.431 118.41L197.126 129.838C197.089 131.236 197.016 132.738 196.129 133.836C195.861 134.205 195.734 134.654 195.773 135.104C196.005 137.971 196.492 140.815 196.977 143.65C197.757 143.307 198.609 143.149 199.464 143.189C200.319 143.228 201.152 143.465 201.895 143.878C203.433 139.169 204.283 134.273 204.421 129.333C204.491 126.902 204.385 124.456 204.769 122.055C205.412 118.012 205.15 113.865 204.677 109.799C204.528 108.511 204.211 107.184 203.364 106.186C202.562 105.314 201.494 104.714 200.317 104.477C199.189 104.189 198.18 104.485 196.992 104.468Z" fill="#5B5583"/>
<path opacity="0.1" d="M196.992 104.468C196.687 104.925 196.687 105.495 196.687 106.032C196.687 108.659 196.715 111.301 197.114 113.901C197.208 114.524 197.327 115.148 197.388 115.777C197.457 116.653 197.471 117.532 197.431 118.41L197.126 129.838C197.089 131.236 197.016 132.738 196.129 133.836C195.861 134.205 195.734 134.654 195.773 135.104C196.005 137.971 196.492 140.815 196.977 143.65C197.757 143.307 198.609 143.149 199.464 143.189C200.319 143.228 201.152 143.465 201.895 143.878C203.433 139.169 204.283 134.273 204.421 129.333C204.491 126.902 204.385 124.456 204.769 122.055C205.412 118.012 205.15 113.865 204.677 109.799C204.528 108.511 204.211 107.184 203.364 106.186C202.562 105.314 201.494 104.714 200.317 104.477C199.189 104.189 198.18 104.485 196.992 104.468Z" fill="black"/>
<path d="M200.716 137.609C198.672 147.811 199.788 158.375 203.921 167.957C204.279 168.667 204.529 169.422 204.665 170.201C204.833 171.656 204.144 173.054 203.751 174.461C202.837 177.661 203.364 181.068 203.949 184.343C204.193 185.708 204.443 187.072 204.701 188.436C204.954 189.766 205.198 191.211 204.564 192.416C205.11 194.631 205.433 196.824 205.978 199.039C206.036 199.214 206.054 199.399 206.03 199.582C205.92 199.872 205.727 200.124 205.472 200.309C205.066 200.711 204.774 201.208 204.625 201.753C204.476 202.298 204.475 202.872 204.622 203.417C206.015 202.443 207.956 202.785 209.547 203.417C211.137 204.049 212.704 204.901 214.422 204.901C214.173 202.936 213.932 200.873 214.675 199.03C215.108 197.961 215.87 196.952 215.849 195.809C215.827 194.785 215.184 193.871 215.029 192.859C214.971 192.229 214.996 191.595 215.102 190.971C215.51 187.338 215.047 183.669 214.584 180.041C214.532 179.326 214.359 178.624 214.072 177.964C213.856 177.536 213.533 177.126 213.539 176.649C213.539 176.094 213.999 175.642 214.17 175.114C214.474 174.14 213.914 172.816 214.758 172.214C216.982 170.623 216.129 166.823 216.08 164.137C216.042 161.82 215.94 159.504 215.776 157.191C217.176 161.027 217.749 165.104 217.458 169.165C217.36 170.495 217.18 171.893 217.714 173.122C218.122 174.066 218.933 174.844 219.152 175.844C219.289 176.462 219.192 177.1 219.222 177.729C219.253 178.358 219.472 179.044 220.03 179.362C220.072 182.223 220.334 185.284 220.38 188.145C220.35 189.608 220.473 191.07 220.746 192.508C220.882 192.966 220.958 193.439 220.971 193.915C220.902 194.513 220.74 195.096 220.49 195.646C219.959 197.178 219.82 198.813 220.085 200.409C220.351 202.005 221.013 203.513 222.013 204.803C222.733 203.56 224.232 202.901 225.695 202.797C227.157 202.693 228.602 203.052 230.019 203.414C229.802 201.68 230.156 199.923 231.03 198.398C231.265 198.054 231.445 197.678 231.564 197.282C231.728 196.528 231.344 195.777 231.137 195.032C230.799 193.844 230.918 192.565 230.997 191.324C231.263 187.169 231.074 182.997 230.433 178.881C230.334 178.07 230.139 177.273 229.851 176.506C229.741 176.233 229.607 175.972 229.516 175.696C229.372 175.201 229.29 174.69 229.272 174.176L228.922 169.427C228.675 166.099 229.796 162.813 230.579 159.566C230.93 158.111 231.311 156.66 231.545 155.182C231.865 153.169 231.917 151.112 232.386 149.126C232.807 147.345 233.566 145.609 233.724 143.783C233.968 140.954 232.761 138.22 231.591 135.626C231.104 134.558 229.26 134.664 228.075 134.474C219.667 133.13 210.811 133.121 202.882 136.152C202.062 136.482 201.324 136.979 200.716 137.609Z" fill="#3C354C"/>
<path d="M206.777 84.9241L207.709 88.4564C207.963 89.2665 208.103 90.1062 208.127 90.9528C208.136 91.2616 208.066 91.5678 207.923 91.8433C207.769 92.0695 207.573 92.265 207.344 92.4192C206.707 92.8911 206.265 93.9924 205.537 94.3189C205.911 94.9541 206.429 94.5415 207.106 94.8591C208.298 95.4231 209.388 96.2335 210.681 96.5125C211.899 96.7737 213.179 96.5274 214.389 96.2157C216.105 95.7615 217.811 95.1352 219.192 94.0399C220.572 92.9446 221.358 91.9769 221.352 90.2463C219.829 90.4215 218.473 88.9225 217.799 87.5748C217.566 87.0626 217.394 86.5257 217.287 85.9749L216.47 82.4752C215.581 82.6652 214.855 83.2856 214.005 83.6091C213.155 83.9327 212.149 83.9624 211.205 84.0039C209.528 84.0782 207.86 84.2887 206.219 84.6332C205.994 84.6777 205.71 84.8172 205.765 85.031" fill="#FBB3B2"/>
<path opacity="0.1" d="M206.777 84.9241L207.709 88.4564C207.963 89.2665 208.103 90.1062 208.127 90.9528C208.136 91.2616 208.066 91.5678 207.923 91.8433C207.769 92.0695 207.573 92.265 207.344 92.4192C206.707 92.8911 206.265 93.9924 205.537 94.3189C205.911 94.9541 206.429 94.5415 207.106 94.8591C208.298 95.4231 209.388 96.2335 210.681 96.5125C211.899 96.7737 213.179 96.5274 214.389 96.2157C216.105 95.7615 217.811 95.1352 219.192 94.0399C220.572 92.9446 221.358 91.9769 221.352 90.2463C219.829 90.4215 218.473 88.9225 217.799 87.5748C217.566 87.0626 217.394 86.5257 217.287 85.9749L216.47 82.4752C215.581 82.6652 214.855 83.2856 214.005 83.6091C213.155 83.9327 212.149 83.9624 211.205 84.0039C209.528 84.0782 207.86 84.2887 206.219 84.6332C205.994 84.6777 205.71 84.8172 205.765 85.031" fill="black"/>
<path d="M210.781 86.8715C215.238 86.8715 218.85 83.3523 218.85 79.0113C218.85 74.6702 215.238 71.1511 210.781 71.1511C206.324 71.1511 202.712 74.6702 202.712 79.0113C202.712 83.3523 206.324 86.8715 210.781 86.8715Z" fill="#FBB3B2"/>
<path d="M213.003 91.9679C213.434 91.0601 214.057 90.251 214.831 89.5932C215.968 88.6226 217.522 87.836 217.79 86.3875L220.252 89.1807C220.386 89.3102 220.49 89.466 220.557 89.6378C220.588 89.7988 220.583 89.9645 220.543 90.1237C220.504 90.2829 220.429 90.432 220.325 90.5609C219.716 91.5078 218.756 92.1846 217.848 92.8703C215.766 94.4762 213.774 96.1884 211.878 97.9996C211.795 98.094 211.683 98.1605 211.558 98.1895C211.44 98.1927 211.324 98.1606 211.226 98.0975C209.59 97.261 208.143 96.1146 206.969 94.7255C206.881 94.6216 206.771 94.5029 206.628 94.5118C206.541 94.5272 206.462 94.5675 206.399 94.6275C205.579 95.2806 204.683 96.0612 203.632 95.9603C204.994 95.0075 205.765 93.4165 206.052 91.8047C206.108 91.253 206.225 90.7087 206.399 90.181C206.489 89.9169 206.645 89.6786 206.852 89.4871C207.06 89.2955 207.312 89.1566 207.588 89.0827C206.923 90.0711 207.377 91.4722 208.27 92.2707C209.138 92.9879 210.178 93.4792 211.293 93.6984C212.329 93.8884 212.634 92.7456 213.003 91.9679Z" fill="#323444"/>
<path d="M202.504 138.416C203.653 138.692 204.741 139.161 205.856 139.509C207.889 140.129 210.029 140.348 212.149 140.153C212.802 140.139 213.437 139.942 213.978 139.586C214.121 139.473 214.252 139.34 214.404 139.236C214.659 139.087 214.935 138.976 215.224 138.906C218.018 138.054 220.359 136.217 222.629 134.418C222.702 134.359 222.784 134.284 222.778 134.19C222.768 134.125 222.736 134.065 222.687 134.02L221.492 132.685C218.36 133.204 215.151 133.008 211.972 132.931C211.32 132.903 210.666 132.92 210.016 132.981C209.388 133.053 208.77 133.207 208.151 133.338C205.802 133.836 203.4 134.026 201.02 134.353C200.854 134.365 200.692 134.413 200.548 134.495C200.448 134.571 200.362 134.663 200.295 134.768L199.46 135.911C199.136 136.296 198.897 136.741 198.759 137.22C198.564 138.111 198.973 138.407 199.75 138.292C200.668 138.161 201.603 138.203 202.504 138.416Z" fill="#323444"/>
<path d="M211.844 96.6402C210.912 95.7098 209.855 94.906 208.703 94.2507C208.237 93.9626 207.72 93.7613 207.179 93.6571C206.907 93.6047 206.626 93.611 206.356 93.6757C206.087 93.7403 205.835 93.8616 205.619 94.0311C205.347 94.2656 205.177 94.5921 204.915 94.8385C204.585 95.1084 204.207 95.3167 203.799 95.4529C202.412 96.0303 201.097 96.7603 199.881 97.6287C199.217 98.0807 198.62 98.6178 198.104 99.2257C196.724 100.947 196.516 103.289 196.553 105.474C196.58 106.994 198.077 108.122 199.107 109.259C200.073 110.377 200.947 111.568 201.721 112.821C202.276 113.675 202.855 114.602 202.785 115.62C202.727 116.454 202.227 117.237 202.306 118.069C202.334 118.365 202.431 118.639 202.459 118.926C202.513 119.52 202.273 120.114 202.212 120.707C202.129 121.548 202.41 122.382 202.425 123.228C202.414 123.807 202.338 124.383 202.2 124.946C201.614 127.659 200.88 130.387 201.029 133.157L199.341 133.453C199.501 133.606 199.622 133.793 199.694 134C199.766 134.207 199.786 134.427 199.755 134.643C199.723 134.859 199.639 135.064 199.511 135.243C199.382 135.421 199.213 135.568 199.015 135.671C201.651 136.529 204.5 136.095 207.295 136.092C209.608 136.092 211.911 136.389 214.221 136.348C216.531 136.306 218.914 135.899 220.819 134.626C221.337 134.282 221.812 133.878 222.358 133.578C223.088 133.209 223.876 132.959 224.689 132.836C226.195 132.556 227.727 132.423 229.26 132.438C230.01 132.438 230.826 132.468 231.424 132.029C232.082 131.542 232.249 130.66 232.338 129.862C232.426 129.019 232.481 128.173 232.496 127.327C232.522 126.668 232.486 126.008 232.39 125.356C232.298 124.879 232.179 124.407 232.033 123.943L230.884 120.001C230.409 118.374 231.07 116.59 231.21 114.904C231.244 114.507 231.25 114.044 230.936 113.788C230.823 113.696 230.668 113.634 230.631 113.491C230.615 113.424 230.613 113.354 230.625 113.285C230.638 113.217 230.665 113.152 230.704 113.094C231.314 111.906 232.228 110.859 233.063 109.787C234.465 107.907 235.767 105.959 236.964 103.948C236.589 99.7417 234.77 95.7807 231.801 92.7042C231.192 92.0601 230.494 91.4427 229.641 91.1518C229.083 90.9859 228.505 90.895 227.922 90.8817C225.533 90.7244 223.046 90.5848 220.965 89.4153C220.816 89.3145 220.647 89.2448 220.468 89.2105C220.008 89.16 219.673 89.6023 219.374 89.9526C218.606 90.8431 217.476 91.3536 216.482 92.0096C214.63 93.2356 213.182 94.9216 211.844 96.6402Z" fill="#5B5583"/>
<path d="M237.171 105.162C237.646 106.629 237.601 108.196 237.756 109.725C237.848 110.647 238.014 111.561 238.253 112.458C238.362 112.952 238.558 113.423 238.832 113.851C239.106 114.242 239.499 114.56 239.673 115.002C239.768 115.302 239.81 115.615 239.798 115.928L239.834 117.977C239.913 119.062 239.743 120.151 239.338 121.165L238.024 125.056C237.314 127.164 236.586 129.304 235.306 131.138C235.126 131.449 234.852 131.698 234.523 131.854C234.265 131.92 234 131.96 233.734 131.972C233.269 132.053 232.848 132.289 232.542 132.639C232.237 132.99 232.067 133.433 232.061 133.893C231.756 133.459 231.375 133.08 230.936 132.774L228.264 130.696C227.349 129.972 226.396 129.235 225.286 128.817C226.778 128.363 228.103 127.497 229.099 126.324C230.096 125.151 230.721 123.722 230.9 122.209C230.899 121.759 231.003 121.315 231.204 120.909C231.427 120.559 231.838 120.292 231.869 119.879C231.905 119.36 231.302 118.968 231.302 118.449C231.302 118.104 231.564 117.819 231.68 117.496C231.788 117.096 231.788 116.676 231.68 116.276L231.311 114.281C231.289 114.081 231.227 113.887 231.128 113.711C230.99 113.542 230.837 113.385 230.671 113.242C230.037 112.551 230.318 111.461 230.671 110.609C231.483 108.718 232.529 106.931 233.785 105.287C234.233 104.735 234.647 104.158 235.026 103.559C235.349 103.013 235.422 102.256 235.763 101.778C236.202 102.9 236.796 104.008 237.171 105.162Z" fill="#5B5583"/>
<path d="M225.192 128.939C225.056 129.037 224.938 129.158 224.845 129.295C224.486 129.734 224.007 130.066 223.464 130.254C223.769 130.467 224.046 130.678 224.333 130.895C226.452 132.489 228.393 134.297 230.123 136.288C230.315 135.62 231.463 135.668 231.744 135.03C231.81 134.847 231.831 134.652 231.805 134.46C231.746 133.46 231.6 132.467 231.366 131.491C231.274 130.989 231.065 130.514 230.756 130.102C230.33 129.601 229.665 129.36 229.032 129.152C228.072 128.826 226.167 128.366 225.192 128.939Z" fill="#323444"/>
<path d="M221.383 131.272C220.468 131.931 219.667 132.756 218.64 133.207C217.915 133.528 217.089 133.667 216.455 134.145C216.799 134.884 217.695 135.267 218.527 135.237C219.36 135.158 220.158 134.873 220.846 134.409C221.392 134.083 222.032 133.703 222.626 133.931C222.717 134.383 222.321 134.807 222.321 135.264C222.321 135.721 222.711 136.054 223.095 136.294C224.924 137.443 227.276 137.348 229.455 137.214C229.58 137.219 229.703 137.183 229.805 137.113C229.853 137.06 229.889 136.997 229.911 136.93C229.934 136.863 229.942 136.792 229.937 136.722C229.964 136.253 229.976 135.787 229.979 135.318C230.041 134.939 229.99 134.552 229.834 134.201C229.677 133.85 229.421 133.549 229.095 133.335C227.913 132.345 226.638 131.465 225.286 130.708C223.945 129.951 222.586 130.399 221.383 131.272Z" fill="#FBB3B2"/>
<path d="M213.615 75.7252C212.262 75.8826 211.278 76.9126 211.415 78.0317C211.552 79.1507 212.759 79.9225 214.112 79.7622C215.465 79.6019 216.449 78.5749 216.312 77.4588C216.175 76.3427 214.968 75.5679 213.615 75.7252ZM214.075 79.4535C212.93 79.5871 211.909 78.9311 211.79 77.9871C211.671 77.0432 212.509 76.1705 213.652 76.0369C214.795 75.9033 215.818 76.5594 215.937 77.5033C216.056 78.4472 215.218 79.3199 214.075 79.4535Z" fill="#3C354C"/>
<path d="M207.021 76.497C205.668 76.6543 204.683 77.6843 204.82 78.8004C204.958 79.9165 206.164 80.6912 207.517 80.5339C208.87 80.3766 209.855 79.3466 209.717 78.2275C209.58 77.1085 208.374 76.3397 207.021 76.497ZM207.481 80.2222C206.335 80.3558 205.314 79.6998 205.198 78.7588C205.082 77.8179 205.914 76.9422 207.06 76.8057C208.206 76.6691 209.227 77.3281 209.343 78.272C209.458 79.216 208.623 80.0887 207.481 80.2222Z" fill="#3C354C"/>
<path d="M202.124 77.0699L205.064 77.6814L204.775 78.4354L202.002 77.6428L202.124 77.0699Z" fill="#3C354C"/>
<path d="M218.515 75.1525L215.803 76.4259L216.269 77.0908L218.771 75.6808L218.515 75.1525Z" fill="#3C354C"/>
<path d="M209.446 77.4914L211.509 77.251L211.403 77.7497L209.632 77.8654L209.446 77.4914Z" fill="#3C354C"/>
<path d="M205.445 76.8176C205.639 76.4109 205.743 75.9689 205.75 75.5204C205.757 75.252 205.804 74.986 205.89 74.7309C206.04 74.4067 206.268 74.1226 206.554 73.9027C207.505 73.119 208.867 72.7154 210.211 72.659C211.676 72.5933 213.134 72.9002 214.441 73.5495C214.84 73.7316 215.197 73.99 215.492 74.3093C215.919 74.8169 216.01 75.4729 216.44 75.9746C216.733 76.279 217.102 76.5045 217.511 76.6293C217.92 76.7541 218.355 76.774 218.774 76.687C218.923 76.1705 218.728 75.6243 218.804 75.096C218.925 74.6432 219.087 74.2021 219.289 73.778C219.761 72.4215 219.073 70.8483 217.653 70.0379C217.156 69.7411 216.568 69.5481 216.196 69.1474C215.824 68.7467 215.736 68.3311 215.48 67.9304C214.8 66.8707 213.042 66.375 211.704 66.8648C211.284 67.0191 210.912 67.2536 210.485 67.4199C209.693 67.7375 208.791 67.7939 207.919 67.9007C207.06 67.9781 206.22 68.1927 205.433 68.5359C204.68 68.8981 204.049 69.4799 203.876 70.1745C203.793 70.495 203.812 70.8275 203.729 71.1451C203.309 72.7569 200.594 73.5406 200.441 75.185C200.386 75.7787 200.719 76.3486 201.133 76.8324C201.419 77.1619 202.105 78.0435 202.59 78.1712C203.074 78.2988 203.443 77.8506 203.906 77.6962C204.637 77.4736 205.079 77.4261 205.445 76.8176Z" fill="#CBCEDA"/>
<path d="M239.822 181.365C239.822 196.278 249.427 208.348 261.297 208.348L239.822 181.365Z" fill="#46455B"/>
<path d="M261.297 208.351C261.297 193.268 272.017 181.066 285.264 181.066L261.297 208.351Z" fill="#717999"/>
<path d="M247.605 182.719C247.605 196.887 253.73 208.351 261.297 208.351L247.605 182.719Z" fill="#717999"/>
<path d="M261.297 208.351C261.297 189.08 273.687 173.485 288.997 173.485L261.297 208.351Z" fill="#46455B"/>
<path opacity="0.1" d="M260.367 213.504C263.316 213.504 265.706 213.11 265.706 212.625C265.706 212.14 263.316 211.746 260.367 211.746C257.419 211.746 255.028 212.14 255.028 212.625C255.028 213.11 257.419 213.504 260.367 213.504Z" fill="#717999"/>
<path d="M256.781 208.541C256.781 208.541 259.828 208.449 260.742 207.813C261.656 207.178 265.426 206.415 265.654 207.436C265.883 208.457 270.225 212.515 266.791 212.542C263.357 212.569 258.801 212.019 257.887 211.476C256.973 210.933 256.781 208.541 256.781 208.541Z" fill="#A8A8A8"/>
<path opacity="0.2" d="M266.855 212.186C263.418 212.212 258.868 211.663 257.951 211.12C257.253 210.707 256.976 209.22 256.881 208.537H256.781C256.781 208.537 256.972 210.93 257.89 211.473C258.807 212.016 263.357 212.565 266.794 212.539C267.788 212.539 268.129 212.186 268.111 211.678C267.973 211.987 267.611 212.18 266.855 212.186Z" fill="black"/>
<path d="M6.85327 190.08C6.85327 201.954 14.4929 211.547 23.9366 211.547L6.85327 190.08Z" fill="#46455B"/>
<path d="M23.937 211.547C23.937 199.549 32.4695 189.84 43.0042 189.84L23.937 211.547Z" fill="#717999"/>
<path d="M13.0427 191.161C13.0427 202.441 17.9185 211.553 23.9369 211.553L13.0427 191.161Z" fill="#717999"/>
<path d="M23.937 211.548C23.937 196.216 33.7951 183.808 45.9753 183.808L23.937 211.548Z" fill="#46455B"/>
<path opacity="0.1" d="M23.1962 215.65C25.5423 215.65 27.4442 215.336 27.4442 214.949C27.4442 214.562 25.5423 214.249 23.1962 214.249C20.8501 214.249 18.9482 214.562 18.9482 214.949C18.9482 215.336 20.8501 215.65 23.1962 215.65Z" fill="#717999"/>
<path d="M20.3442 211.699C20.3442 211.699 22.7669 211.625 23.4952 211.105C24.2235 210.586 27.2251 209.992 27.4049 210.808C27.5847 211.625 31.0465 214.848 28.3191 214.869C25.5917 214.89 21.9624 214.454 21.2341 214.023C20.5057 213.593 20.3442 211.699 20.3442 211.699Z" fill="#A8A8A8"/>
<path opacity="0.2" d="M28.3587 214.611C25.6161 214.632 22.002 214.195 21.2737 213.762C20.7191 213.435 20.4997 212.251 20.4235 211.708H20.3442C20.3442 211.708 20.4966 213.611 21.2249 214.044C21.9532 214.477 25.5765 214.911 28.31 214.89C29.0992 214.89 29.3735 214.611 29.3583 214.204C29.2485 214.442 28.9469 214.593 28.3587 214.611Z" fill="black"/>
</g>
<defs>
<clipPath id="clip0">
<rect width="289" height="225" fill="white"/>
</clipPath>
</defs>
</svg>
