<svg width="14" height="14" viewBox="0 0 14 14" fill="none" xmlns="http://www.w3.org/2000/svg">
<path d="M13.5998 7.4728H13.4086V2.17856C13.4086 2.03739 13.3381 1.91277 13.2312 1.83933C13.2177 1.62699 13.1537 1.22301 13.0633 0.86577C12.8669 0.0897543 12.6734 0 12.545 0C12.4166 0 12.2231 0.0897543 12.0267 0.86577C11.9363 1.22301 11.8722 1.62696 11.8588 1.8393C11.7519 1.91277 11.6814 2.03736 11.6814 2.17853V7.47277H11.1056C11.0455 5.25501 9.29088 3.46219 7.11937 3.39859V2.53402C7.32484 2.50756 7.51486 2.41318 7.66367 2.2612C7.84097 2.08018 7.93856 1.83953 7.93856 1.58355C7.93854 1.32753 7.84089 1.08692 7.66376 0.906059C7.63562 0.877212 7.60517 0.849827 7.57327 0.824649C7.52606 0.7874 7.45916 0.791472 7.41664 0.834084C7.37407 0.876753 7.3689 0.944943 7.40448 0.993806C7.55221 1.19654 7.53137 1.48447 7.35601 1.66355C7.26089 1.76065 7.13443 1.81413 6.99996 1.81413C6.86546 1.81413 6.73905 1.76067 6.64393 1.66355C6.46855 1.48456 6.44774 1.19663 6.59546 0.993835C6.63104 0.945 6.62585 0.87681 6.58333 0.83417C6.54078 0.791558 6.47391 0.787457 6.42673 0.824678C6.39519 0.84954 6.36475 0.876896 6.3363 0.905973C5.97036 1.27961 5.97039 1.88759 6.3363 2.26126C6.48509 2.41324 6.67513 2.50758 6.88063 2.53405V3.39859C4.70915 3.46219 2.95455 5.25501 2.8944 7.47277H2.31861V2.17856C2.31861 2.03739 2.24812 1.91277 2.14123 1.83933C2.12778 1.62699 2.06372 1.22301 1.97332 0.86577C1.77692 0.0897543 1.58345 0 1.45502 0C1.32659 0 1.13312 0.0897543 0.936724 0.86577C0.846321 1.22301 0.78226 1.62696 0.76878 1.8393C0.661891 1.91277 0.591399 2.03736 0.591399 2.17853V7.47277H0.400201C0.179515 7.47277 0 7.6561 0 7.8814V13.5914C0 13.8167 0.179515 14 0.400201 14H13.5998C13.8205 14 14 13.8167 14 13.5914V7.88143C14 7.6561 13.8205 7.4728 13.5998 7.4728ZM11.9201 2.36257V2.17856C11.9201 2.08763 11.9925 2.01368 12.0816 2.01368H13.0084C13.0974 2.01368 13.1699 2.08763 13.1699 2.17856V2.36257H11.9201ZM12.545 0.244573C12.5853 0.262639 12.7081 0.420555 12.8419 0.966192C12.9177 1.275 12.9665 1.58111 12.9858 1.76994H12.1041C12.1234 1.58111 12.1722 1.27497 12.248 0.966192C12.3818 0.420526 12.5047 0.26261 12.545 0.244573ZM11.9201 2.60631H12.1324V3.65059C12.1324 3.71792 12.1858 3.77246 12.2518 3.77246C12.3177 3.77246 12.3711 3.71792 12.3711 3.65059V2.60631H12.769V4.68291C12.769 4.75024 12.8224 4.80478 12.8883 4.80478C12.9543 4.80478 13.0077 4.75024 13.0077 4.68291V2.60631H13.1699V7.4728H11.9201V2.60631ZM6.30108 1.55289C6.33683 1.65701 6.39505 1.75422 6.47515 1.836C6.61534 1.97912 6.80171 2.05792 6.99996 2.05792C7.1982 2.05792 7.38457 1.9791 7.5248 1.83595C7.60512 1.75394 7.66342 1.65638 7.69912 1.55195C7.69959 1.56244 7.69979 1.57299 7.69979 1.5836C7.69979 1.7745 7.627 1.95395 7.49483 2.08892C7.36261 2.2239 7.18686 2.29825 6.9999 2.29825C6.81297 2.29825 6.63725 2.22393 6.50508 2.08898C6.36101 1.94182 6.29302 1.74596 6.30108 1.55289ZM3.17224 7.01755H4.19158C4.2575 7.01755 4.31094 6.96301 4.31094 6.89568C4.31094 6.82835 4.2575 6.77381 4.19158 6.77381H3.21475C3.58423 4.98629 5.14097 3.64044 6.99999 3.64044C8.859 3.64044 10.4157 4.98629 10.7852 6.77381H5.96089C5.89498 6.77381 5.84154 6.82835 5.84154 6.89568C5.84154 6.96301 5.89498 7.01755 5.96089 7.01755H10.8278C10.8491 7.16678 10.8623 7.31867 10.8667 7.4728H3.13325C3.13772 7.31867 3.15089 7.16678 3.17224 7.01755ZM0.830144 2.36257V2.17856C0.830144 2.08763 0.902602 2.01368 0.991629 2.01368H1.91841C2.00744 2.01368 2.0799 2.08763 2.0799 2.17856V2.36257H0.830144ZM1.45502 0.244573C1.49535 0.262639 1.61819 0.420555 1.75201 0.966192C1.82775 1.275 1.87659 1.58111 1.89583 1.76994H1.01418C1.03342 1.58111 1.08229 1.27497 1.158 0.966192C1.29185 0.420526 1.41466 0.26261 1.45502 0.244573ZM0.830144 2.60631H1.01104V4.83583C1.01104 4.90316 1.06448 4.9577 1.13039 4.9577C1.19631 4.9577 1.24975 4.90316 1.24975 4.83583V2.60631H1.59143V3.09618C1.59143 3.16351 1.64487 3.21805 1.71078 3.21805C1.7767 3.21805 1.83014 3.16351 1.83014 3.09618V2.60631H2.07987V7.4728H0.830116V2.60631H0.830144ZM0.400201 7.71654H13.5998C13.6889 7.71654 13.7613 7.7905 13.7613 7.88143V8.30795H0.238717V7.88143C0.238717 7.7905 0.311146 7.71654 0.400201 7.71654ZM3.71603 13.7563H2.63526V11.6606C2.63526 11.5933 2.58182 11.5387 2.5159 11.5387C2.44999 11.5387 2.39655 11.5933 2.39655 11.6606V13.7563H2.22037V11.4062C2.22037 10.9852 2.55584 10.6426 2.9682 10.6426C3.38056 10.6426 3.71603 10.9852 3.71603 11.4062V13.7563ZM8.08825 13.7563H5.91175V10.4362C5.91175 9.82345 6.39991 9.32498 6.99996 9.32498C7.60004 9.32498 8.08825 9.82345 8.08825 10.4362V13.7563ZM11.7796 13.7563H11.5848V11.6797C11.5848 11.6124 11.5314 11.5579 11.4654 11.5579C11.3995 11.5579 11.3461 11.6124 11.3461 11.6797V13.7563H10.284V11.4062C10.284 10.9852 10.6194 10.6426 11.0318 10.6426C11.4442 10.6426 11.7797 10.9852 11.7797 11.4062V13.7563H11.7796ZM13.5998 13.7563H12.0183V11.4062C12.0183 10.8508 11.5758 10.3989 11.0318 10.3989C10.4878 10.3989 10.0453 10.8508 10.0453 11.4062V13.7563H8.32694V10.4362C8.32694 9.68904 7.73167 9.08124 6.99993 9.08124C6.26825 9.08124 5.673 9.68904 5.673 10.4362V13.7563H3.95472V11.4062C3.95472 10.8508 3.51217 10.3989 2.96817 10.3989C2.42418 10.3989 1.98163 10.8508 1.98163 11.4062V13.7563H0.400201C0.311146 13.7563 0.238717 13.6823 0.238717 13.5914V10.1767H0.533602V13.2473C0.533602 13.3146 0.587046 13.3692 0.65296 13.3692C0.718874 13.3692 0.772319 13.3146 0.772319 13.2473V10.1767H1.22403C1.28994 10.1767 1.34338 10.1221 1.34338 10.0548C1.34338 9.98747 1.28994 9.93293 1.22403 9.93293H0.238717V8.55169H13.7613V9.13001H11.2969C11.231 9.13001 11.1776 9.18456 11.1776 9.25189C11.1776 9.31921 11.231 9.37376 11.2969 9.37376H13.7613V10.1432H12.8977C12.8317 10.1432 12.7783 10.1977 12.7783 10.265C12.7783 10.3324 12.8317 10.3869 12.8977 10.3869H13.2277V11.4407C13.2277 11.5081 13.2811 11.5626 13.347 11.5626C13.413 11.5626 13.4664 11.5081 13.4664 11.4407V10.3869H13.7613V13.5914C13.7613 13.6823 13.6889 13.7563 13.5998 13.7563Z" fill="#717999"/>
<path d="M7.11957 4.22978C7.11957 4.16245 7.06615 4.10791 7.00021 4.10791C5.9325 4.10791 4.94641 4.6042 4.29477 5.46945C4.25458 5.52282 4.26438 5.59932 4.31662 5.64036C4.3383 5.65739 4.36391 5.66562 4.3893 5.66562C4.42508 5.66562 4.46049 5.64925 4.484 5.61805C5.09009 4.81324 6.00721 4.35165 7.00021 4.35165C7.06615 4.35165 7.11957 4.29711 7.11957 4.22978Z" fill="#717999"/>
<path d="M7.00022 9.52612C6.9343 9.52612 6.88086 9.58066 6.88086 9.64799C6.88086 9.71532 6.9343 9.76986 7.00022 9.76986C7.36001 9.76986 7.65273 10.0687 7.65273 10.4361C7.65273 10.5034 7.70614 10.558 7.77209 10.558C7.83803 10.558 7.89145 10.5034 7.89145 10.4361C7.89145 9.93438 7.49164 9.52612 7.00022 9.52612Z" fill="#717999"/>
<path d="M11.0316 10.7822C10.6946 10.7822 10.4204 11.0622 10.4204 11.4062C10.4204 11.4736 10.4738 11.5281 10.5398 11.5281C10.6057 11.5281 10.6591 11.4736 10.6591 11.4062C10.6591 11.1966 10.8262 11.026 11.0316 11.026C11.0975 11.026 11.1509 10.9714 11.1509 10.9041C11.1509 10.8368 11.0975 10.7822 11.0316 10.7822Z" fill="#717999"/>
<path d="M2.96799 10.7631C2.90208 10.7631 2.84863 10.8176 2.84863 10.8849C2.84863 10.9523 2.90208 11.0068 2.96799 11.0068C3.18371 11.0068 3.35918 11.186 3.35918 11.4062C3.35918 11.4736 3.41262 11.5281 3.47854 11.5281C3.54445 11.5281 3.59789 11.4736 3.59789 11.4062C3.59789 11.0516 3.31534 10.7631 2.96799 10.7631Z" fill="#717999"/>
</svg>
