<svg width="22" height="18" viewBox="0 0 22 18" fill="none" xmlns="http://www.w3.org/2000/svg">
<path d="M16.0002 12H18.0002V14H16.0002V12ZM16.0002 8H18.0002V10H16.0002V8ZM16.0002 4H18.0002V6H16.0002V4ZM12.7402 4L14.0002 4.84V4H12.7402Z" fill="#C1C5D2"/>
<path d="M9 0V1.51L11 2.84V2H20V16H16V18H22V0H9Z" fill="#C1C5D2"/>
<path d="M7.17 2.69995L14 7.24995V18H0V7.47995L7.17 2.69995ZM9 16H12V8.15995L7.17 5.08995L2 8.37995V16H5V9.99995H9V16Z" fill="#C1C5D2"/>
<path opacity="0.3" d="M9 16H12V8.15997L7.17 5.08997L2 8.37997V16H5V9.99997H9V16Z" fill="#C1C5D2"/>
</svg>
