<svg width="16" height="16" viewBox="0 0 16 16" fill="none" xmlns="http://www.w3.org/2000/svg">
<path d="M15.5469 5.84375C15.375 6.01562 15.2057 6.17448 15.0391 6.32031C14.8776 6.46094 14.7083 6.58073 14.5312 6.67969C14.3594 6.77865 14.1693 6.85677 13.9609 6.91406C13.7578 6.96615 13.526 6.99219 13.2656 6.99219C13.0885 6.99219 12.9193 6.97656 12.7578 6.94531L9.79688 9.90625C9.86458 10.1042 9.91406 10.3073 9.94531 10.5156C9.97656 10.724 9.99219 10.9323 9.99219 11.1406C9.99219 11.4792 9.95833 11.7865 9.89062 12.0625C9.82292 12.3385 9.72396 12.599 9.59375 12.8438C9.46875 13.0885 9.3151 13.3229 9.13281 13.5469C8.95052 13.7656 8.74479 13.9896 8.51562 14.2188L5.5 11.2031L1.0625 15.6484L0 16L0.351562 14.9375L4.79688 10.5L1.78125 7.48438L2.13281 7.13281C2.4974 6.76823 2.91406 6.48958 3.38281 6.29688C3.85677 6.10417 4.35156 6.00781 4.86719 6.00781C5.29427 6.00781 5.70312 6.07292 6.09375 6.20312L9.05469 3.24219C9.02344 3.08073 9.00781 2.91146 9.00781 2.73438C9.00781 2.47917 9.03385 2.25 9.08594 2.04688C9.14323 1.83854 9.22135 1.64583 9.32031 1.46875C9.41927 1.29167 9.53906 1.1224 9.67969 0.960938C9.82552 0.794271 9.98438 0.625 10.1562 0.453125L15.5469 5.84375ZM13.2656 5.99219C13.5521 5.99219 13.8229 5.92448 14.0781 5.78906L10.2109 1.92188C10.0755 2.17708 10.0078 2.44792 10.0078 2.73438C10.0078 2.88021 10.0234 3.01823 10.0547 3.14844C10.0911 3.27344 10.1302 3.40365 10.1719 3.53906L6.32812 7.375C6.19792 7.32292 6.07552 7.27344 5.96094 7.22656C5.84635 7.17969 5.73177 7.14062 5.61719 7.10938C5.5026 7.07812 5.38281 7.05469 5.25781 7.03906C5.13802 7.01823 5.00781 7.00781 4.86719 7.00781C4.57031 7.00781 4.28125 7.05208 4 7.14062C3.72396 7.22396 3.46615 7.34896 3.22656 7.51562L8.48438 12.7734C8.65104 12.5339 8.77865 12.276 8.86719 12C8.95573 11.7188 9 11.4323 9 11.1406C9 11 8.98958 10.8698 8.96875 10.75C8.95312 10.625 8.92708 10.5052 8.89062 10.3906C8.85938 10.2708 8.82031 10.1536 8.77344 10.0391C8.72656 9.92448 8.67708 9.80208 8.625 9.67188L12.4609 5.82812C12.5964 5.86979 12.7266 5.90885 12.8516 5.94531C12.9818 5.97656 13.1198 5.99219 13.2656 5.99219Z" fill="black"/>
</svg>
