<svg width="16" height="16" viewBox="0 0 16 16" fill="none" xmlns="http://www.w3.org/2000/svg">
<path d="M11.5 9C11.9844 9 12.4375 9.09115 12.8594 9.27344C13.2865 9.45573 13.6589 9.70573 13.9766 10.0234C14.2943 10.3411 14.5443 10.7135 14.7266 11.1406C14.9089 11.5625 15 12.0156 15 12.5C15 12.9844 14.9089 13.4401 14.7266 13.8672C14.5443 14.2891 14.2943 14.6589 13.9766 14.9766C13.6589 15.2943 13.2865 15.5443 12.8594 15.7266C12.4375 15.9089 11.9844 16 11.5 16C11.0156 16 10.5599 15.9089 10.1328 15.7266C9.71094 15.5443 9.34115 15.2943 9.02344 14.9766C8.70573 14.6589 8.45573 14.2891 8.27344 13.8672C8.09115 13.4401 8 12.9844 8 12.5C8 12.0156 8.09115 11.5625 8.27344 11.1406C8.45573 10.7135 8.70573 10.3411 9.02344 10.0234C9.34115 9.70573 9.71094 9.45573 10.1328 9.27344C10.5599 9.09115 11.0156 9 11.5 9ZM9 12.5C9 12.8438 9.0651 13.1693 9.19531 13.4766C9.32552 13.7786 9.5026 14.0443 9.72656 14.2734C9.95573 14.4974 10.2214 14.6745 10.5234 14.8047C10.8307 14.9349 11.1562 15 11.5 15C11.7448 15 11.9844 14.9661 12.2188 14.8984C12.4531 14.8255 12.6719 14.7214 12.875 14.5859L9.41406 11.125C9.27865 11.3281 9.17448 11.5469 9.10156 11.7812C9.03385 12.0156 9 12.2552 9 12.5ZM13.5859 13.875C13.7214 13.6719 13.8229 13.4531 13.8906 13.2188C13.9635 12.9844 14 12.7448 14 12.5C14 12.1562 13.9323 11.8333 13.7969 11.5312C13.6667 11.2292 13.487 10.9661 13.2578 10.7422C13.0339 10.513 12.7708 10.3333 12.4688 10.2031C12.1667 10.0677 11.8438 10 11.5 10C11.2552 10 11.0156 10.0365 10.7812 10.1094C10.5469 10.1771 10.3281 10.2786 10.125 10.4141L13.5859 13.875ZM15.5469 5.84375C15.375 6.01562 15.2057 6.17448 15.0391 6.32031C14.8776 6.46094 14.7083 6.58073 14.5312 6.67969C14.3594 6.77865 14.1693 6.85677 13.9609 6.91406C13.7578 6.96615 13.526 6.99219 13.2656 6.99219C13.0885 6.99219 12.9193 6.97656 12.7578 6.94531L11.7109 8H10.2891L12.4609 5.82812C12.5964 5.86979 12.7292 5.90885 12.8594 5.94531C12.9896 5.97656 13.125 5.99219 13.2656 5.99219C13.5521 5.99219 13.8229 5.92448 14.0781 5.78906L10.2109 1.92188C10.0755 2.17708 10.0078 2.44792 10.0078 2.73438C10.0078 2.875 10.0234 3.01042 10.0547 3.14062C10.0911 3.27083 10.1302 3.40365 10.1719 3.53906L6.32812 7.375C6.20312 7.32292 6.08333 7.27344 5.96875 7.22656C5.85417 7.17969 5.73958 7.14062 5.625 7.10938C5.51042 7.07812 5.39062 7.05469 5.26562 7.03906C5.14583 7.01823 5.01562 7.00781 4.875 7.00781C4.57812 7.00781 4.28906 7.05208 4.00781 7.14062C3.72656 7.22396 3.46615 7.34896 3.22656 7.51562L7 11.2891V12.7109L5.5 11.2031L1.0625 15.6484L0 16L0.351562 14.9375L4.79688 10.5L1.78125 7.48438L2.13281 7.13281C2.4974 6.76823 2.91927 6.48958 3.39844 6.29688C3.8776 6.10417 4.375 6.00781 4.89062 6.00781C5.09375 6.00781 5.29427 6.02604 5.49219 6.0625C5.69531 6.09375 5.89583 6.14062 6.09375 6.20312L9.05469 3.24219C9.02344 3.08073 9.00781 2.91146 9.00781 2.73438C9.00781 2.47917 9.03385 2.25 9.08594 2.04688C9.14323 1.83854 9.22135 1.64583 9.32031 1.46875C9.41927 1.29167 9.53906 1.1224 9.67969 0.960938C9.82552 0.794271 9.98438 0.625 10.1562 0.453125L15.5469 5.84375Z" fill="black"/>
</svg>
