<svg width="16" height="14" viewBox="0 0 16 14" fill="none" xmlns="http://www.w3.org/2000/svg">
<path d="M14.5 5C14.7083 5 14.9036 5.03906 15.0859 5.11719C15.2682 5.19531 15.4271 5.30208 15.5625 5.4375C15.6979 5.57292 15.8047 5.73177 15.8828 5.91406C15.9609 6.09635 16 6.29167 16 6.5V9.5C16 10.1198 15.8802 10.7031 15.6406 11.25C15.4062 11.7969 15.0859 12.2734 14.6797 12.6797C14.2734 13.0859 13.7969 13.4089 13.25 13.6484C12.7031 13.8828 12.1198 14 11.5 14C10.7396 14 10.0391 13.8594 9.39844 13.5781C8.76302 13.2917 8.17708 12.8802 7.64062 12.3438L5.14844 9.85938L3.02344 10.9219L1.94531 8.75781L0 10.7109V0.289062L7 7.28906V1.5C7 1.29167 7.03906 1.09635 7.11719 0.914062C7.19531 0.731771 7.30208 0.572917 7.4375 0.4375C7.57292 0.302083 7.73177 0.195312 7.91406 0.117188C8.09635 0.0390625 8.29167 0 8.5 0C8.70833 0 8.90365 0.0390625 9.08594 0.117188C9.26823 0.195312 9.42708 0.302083 9.5625 0.4375C9.69792 0.572917 9.80469 0.731771 9.88281 0.914062C9.96094 1.09635 10 1.29167 10 1.5V4.08594C10.1406 4.03385 10.2943 4.00781 10.4609 4.00781C10.7161 4.00781 10.9609 4.06771 11.1953 4.1875C11.4349 4.30729 11.625 4.47656 11.7656 4.69531C12 4.5651 12.2448 4.5 12.5 4.5C12.7604 4.5 13.0026 4.5625 13.2266 4.6875C13.4505 4.80729 13.6302 4.97656 13.7656 5.19531C14 5.0651 14.2448 5 14.5 5ZM3.3125 6.5H4.79688L1 2.71094V8.28906L2.21875 7.07031L3.47656 9.57812L4.57812 9.02344L3.3125 6.5ZM15 6.5C15 6.36458 14.9505 6.2474 14.8516 6.14844C14.7526 6.04948 14.6354 6 14.5 6C14.3229 6 14.1979 6.04948 14.125 6.14844C14.0573 6.2474 14.0156 6.3724 14 6.52344C13.9896 6.66927 13.9896 6.82812 14 7C14.0104 7.17188 14.0078 7.33333 13.9922 7.48438C13.9818 7.63021 13.9401 7.7526 13.8672 7.85156C13.7995 7.95052 13.6771 8 13.5 8C13.3073 8 13.1745 7.9401 13.1016 7.82031C13.0339 7.69531 12.9948 7.53906 12.9844 7.35156C12.974 7.16406 12.9792 6.96354 13 6.75C13.0208 6.53646 13.026 6.33594 13.0156 6.14844C13.0052 5.96094 12.9635 5.80729 12.8906 5.6875C12.8229 5.5625 12.6927 5.5 12.5 5.5C12.3229 5.5 12.1979 5.54948 12.125 5.64844C12.0573 5.7474 12.0156 5.8724 12 6.02344C11.9896 6.16927 11.9896 6.32812 12 6.5C12.0104 6.67188 12.0078 6.83333 11.9922 6.98438C11.9818 7.13021 11.9401 7.2526 11.8672 7.35156C11.7995 7.45052 11.6771 7.5 11.5 7.5C11.3073 7.5 11.1745 7.4401 11.1016 7.32031C11.0339 7.19531 10.9948 7.03906 10.9844 6.85156C10.974 6.66406 10.9792 6.46354 11 6.25C11.0208 6.03646 11.026 5.83594 11.0156 5.64844C11.0052 5.46094 10.9635 5.30729 10.8906 5.1875C10.8229 5.0625 10.6927 5 10.5 5C10.3229 5 10.1979 5.04948 10.125 5.14844C10.0573 5.2474 10.0156 5.3724 10 5.52344C9.98958 5.66927 9.98958 5.82812 10 6C10.0104 6.17188 10.0078 6.33333 9.99219 6.48438C9.98177 6.63021 9.9401 6.7526 9.86719 6.85156C9.79948 6.95052 9.67708 7 9.5 7C9.36458 7 9.2474 6.95052 9.14844 6.85156C9.04948 6.7526 9 6.63542 9 6.5V1.5C9 1.36458 8.95052 1.2474 8.85156 1.14844C8.7526 1.04948 8.63542 1 8.5 1C8.36458 1 8.2474 1.04948 8.14844 1.14844C8.04948 1.2474 8 1.36458 8 1.5V7.64844C8 7.76823 7.97656 7.88021 7.92969 7.98438C7.88802 8.08333 7.82812 8.17188 7.75 8.25C7.67708 8.32812 7.58854 8.39062 7.48438 8.4375C7.38021 8.47917 7.26823 8.5 7.14844 8.5C6.95573 8.5 6.79167 8.44792 6.65625 8.34375C6.52604 8.23958 6.40365 8.125 6.28906 8C6.17448 7.875 6.0599 7.76042 5.94531 7.65625C5.83594 7.55208 5.70833 7.5 5.5625 7.5C5.40625 7.5 5.27344 7.55469 5.16406 7.66406C5.05469 7.77344 5 7.90625 5 8.0625C5 8.21875 5.05469 8.35156 5.16406 8.46094L8.35156 11.6484C8.78906 12.0859 9.26823 12.4219 9.78906 12.6562C10.3099 12.8854 10.8802 13 11.5 13C11.9844 13 12.4375 12.9089 12.8594 12.7266C13.2865 12.5391 13.6562 12.2891 13.9688 11.9766C14.2865 11.6589 14.5365 11.2891 14.7188 10.8672C14.9062 10.4401 15 9.98438 15 9.5V6.5Z" fill="black"/>
</svg>
