<svg width="16" height="16" viewBox="0 0 16 16" fill="none" xmlns="http://www.w3.org/2000/svg">
<path opacity="0.3" d="M5 11H14V2H5V11ZM6.5 3.5H12.5V5H6.5V3.5ZM6.5 5.75H12.5V7.25H6.5V5.75ZM6.5 8H9.5V9.5H6.5V8Z" fill="black"/>
<path d="M1.6 16H12.8V14.4H1.6V3.2H0V14.4C0 15.28 0.72 16 1.6 16ZM3.2 1.6V11.2C3.2 12.08 3.92 12.8 4.8 12.8H14.4C15.28 12.8 16 12.08 16 11.2V1.6C16 0.72 15.28 0 14.4 0H4.8C3.92 0 3.2 0.72 3.2 1.6ZM14.4 11.2H4.8V1.6H14.4V11.2ZM6.4 5.6H12.8V7.2H6.4V5.6ZM6.4 8H9.6V9.6H6.4V8ZM6.4 3.2H12.8V4.8H6.4V3.2Z" fill="black"/>
</svg>
