<svg width="25" height="25" viewBox="0 0 25 25" fill="none" xmlns="http://www.w3.org/2000/svg">
<path d="M3.24074 6.25C4.86991 6.25 6.21852 5.08304 6.44444 3.57143H24.537C24.7931 3.57143 25 3.37188 25 3.125C25 2.87812 24.7931 2.67857 24.537 2.67857H6.44444C6.21852 1.16696 4.86991 0 3.24074 0C1.4537 0 0 1.40223 0 3.125C0 4.84777 1.4537 6.25 3.24074 6.25ZM3.24074 0.892857C4.51713 0.892857 5.55556 1.8942 5.55556 3.125C5.55556 4.3558 4.51713 5.35714 3.24074 5.35714C1.96435 5.35714 0.925926 4.3558 0.925926 3.125C0.925926 1.8942 1.96435 0.892857 3.24074 0.892857Z" fill="#494E65"/>
<path d="M21.7593 18.75C20.1301 18.75 18.7815 19.917 18.5556 21.4286H0.462963C0.207407 21.4286 0 21.6281 0 21.875C0 22.1219 0.207407 22.3214 0.462963 22.3214H18.5556C18.7815 23.833 20.1301 25 21.7593 25C23.5458 25 25 23.5978 25 21.875C25 20.1522 23.5458 18.75 21.7593 18.75ZM21.7593 24.1071C20.4829 24.1071 19.4444 23.1058 19.4444 21.875C19.4444 20.6442 20.4829 19.6429 21.7593 19.6429C23.0356 19.6429 24.0741 20.6442 24.0741 21.875C24.0741 23.1058 23.0356 24.1071 21.7593 24.1071Z" fill="#494E65"/>
<path d="M24.537 12.0536H15.9111C15.7278 10.4455 14.3116 9.19019 12.5958 9.19019C10.8801 9.19019 9.46389 10.446 9.28055 12.0536H0.462963C0.207407 12.0536 0 12.2531 0 12.5C0 12.7469 0.207407 12.9464 0.462963 12.9464H9.30972C9.57685 14.4643 10.9468 15.625 12.5958 15.625C14.2449 15.625 15.6144 14.4643 15.8815 12.9464H24.537C24.7931 12.9464 25 12.7469 25 12.5C25 12.2531 24.7931 12.0536 24.537 12.0536ZM12.5958 14.7321C11.2667 14.7321 10.1852 13.6893 10.1852 12.4076C10.1852 11.1259 11.2667 10.083 12.5958 10.083C13.925 10.083 15.0065 11.1259 15.0065 12.4076C15.0065 13.6893 13.925 14.7321 12.5958 14.7321Z" fill="#494E65"/>
</svg>
