<svg width="10" height="10" viewBox="0 0 10 10" fill="none" xmlns="http://www.w3.org/2000/svg">
<path d="M8.97207 2.96331C8.97842 3.05214 8.97842 3.14099 8.97842 3.22981C8.97842 5.93919 6.91625 9.06103 3.14721 9.06103C1.98603 9.06103 0.907363 8.72472 0 8.14099C0.16498 8.16001 0.323594 8.16636 0.494922 8.16636C1.45303 8.16636 2.33502 7.84276 3.03934 7.29073C2.13832 7.27169 1.38324 6.68159 1.12309 5.8694C1.25 5.88843 1.37689 5.90112 1.51016 5.90112C1.69416 5.90112 1.87818 5.87573 2.04949 5.83134C1.11041 5.64097 0.406074 4.8161 0.406074 3.81991V3.79454C0.678906 3.94683 0.996191 4.042 1.33246 4.05468C0.78043 3.68665 0.418769 3.05849 0.418769 2.34782C0.418769 1.96712 0.520273 1.61813 0.697949 1.31356C1.70684 2.55722 3.22334 3.36939 4.92383 3.45823C4.89211 3.30595 4.87307 3.14733 4.87307 2.9887C4.87307 1.85925 5.78678 0.939209 6.92256 0.939209C7.51266 0.939209 8.04564 1.18667 8.42002 1.58642C8.8832 1.49759 9.32736 1.32626 9.72078 1.09149C9.56848 1.56739 9.24488 1.96714 8.81976 2.22093C9.23221 2.17653 9.63195 2.06229 9.99996 1.90368C9.72082 2.30976 9.37182 2.67142 8.97207 2.96331Z" fill="#DCDEE6"/>
</svg>
