<svg width="18" height="18" viewBox="0 0 18 18" fill="none" xmlns="http://www.w3.org/2000/svg">
<g clip-path="url(#clip0)">
<path d="M16.0714 8.99905H6.10714V5.37444C6.10714 3.98225 7.3808 2.82561 8.97188 2.81155C10.579 2.79749 11.8929 3.94007 11.8929 5.3428V5.9053C11.8929 6.37288 12.3228 6.74905 12.8571 6.74905H14.1429C14.6772 6.74905 15.1071 6.37288 15.1071 5.9053V5.3428C15.1071 2.38968 12.3549 -0.0114965 8.97991 -0.00094958C5.60491 0.0095973 2.89286 2.44241 2.89286 5.39553V8.99905H1.92857C0.863839 8.99905 0 9.75491 0 10.6866V16.3116C0 17.2432 0.863839 17.9991 1.92857 17.9991H16.0714C17.1362 17.9991 18 17.2432 18 16.3116V10.6866C18 9.75491 17.1362 8.99905 16.0714 8.99905ZM10.6071 14.3428C10.6071 15.1198 9.88795 15.7491 9 15.7491C8.11205 15.7491 7.39286 15.1198 7.39286 14.3428V12.6553C7.39286 11.8783 8.11205 11.2491 9 11.2491C9.88795 11.2491 10.6071 11.8783 10.6071 12.6553V14.3428Z" fill="#494E65"/>
</g>
<defs>
<clipPath id="clip0">
<rect width="18" height="18" fill="white"/>
</clipPath>
</defs>
</svg>
