<svg width="18" height="18" viewBox="0 0 18 18" fill="none" xmlns="http://www.w3.org/2000/svg">
<path d="M12.6 10.6875C11.4469 10.6875 10.8924 11.25 9 11.25C7.10759 11.25 6.55714 10.6875 5.4 10.6875C2.41875 10.6875 0 12.8039 0 15.4125V16.3125C0 17.2441 0.863839 18 1.92857 18H16.0714C17.1362 18 18 17.2441 18 16.3125V15.4125C18 12.8039 15.5813 10.6875 12.6 10.6875ZM16.0714 16.3125H1.92857V15.4125C1.92857 13.7391 3.4875 12.375 5.4 12.375C5.98661 12.375 6.93884 12.9375 9 12.9375C11.0772 12.9375 12.0094 12.375 12.6 12.375C14.5125 12.375 16.0714 13.7391 16.0714 15.4125V16.3125ZM9 10.125C12.1942 10.125 14.7857 7.85742 14.7857 5.0625C14.7857 2.26758 12.1942 0 9 0C5.8058 0 3.21429 2.26758 3.21429 5.0625C3.21429 7.85742 5.8058 10.125 9 10.125ZM9 1.6875C11.1254 1.6875 12.8571 3.20273 12.8571 5.0625C12.8571 6.92227 11.1254 8.4375 9 8.4375C6.87455 8.4375 5.14286 6.92227 5.14286 5.0625C5.14286 3.20273 6.87455 1.6875 9 1.6875Z" fill="#494E65"/>
</svg>
